<svg data-name="Layer 1" xmlns="http://www.w3.org/2000/svg" xmlns:xlink="http://www.w3.org/1999/xlink" width="1117.5" height="823.9"><defs><linearGradient id="a" x1="226.7" y1="654.6" x2="226.7" y2="429.5" gradientTransform="matrix(-1 0 0 1 443.3 0)" gradientUnits="userSpaceOnUse"><stop offset="0" stop-color="gray" stop-opacity=".3"/><stop offset=".5" stop-color="gray" stop-opacity=".1"/><stop offset="1" stop-color="gray" stop-opacity=".1"/></linearGradient><linearGradient id="b" x1="307.1" y1="640.8" x2="521.6" y2="640.8" xlink:href="#a"/></defs><ellipse cx="637.3" cy="657.3" rx="158.5" ry="25.3" fill="#4285f4" opacity=".1"/><ellipse cx="366.1" cy="802.5" rx="158.5" ry="12.5" fill="#4285f4" opacity=".1"/><ellipse cx="925.8" cy="799.6" rx="34.7" ry="5.1" fill="#4285f4" opacity=".1"/><ellipse cx="860.7" cy="753.1" rx="25.3" ry="2.6" fill="#4285f4" opacity=".1"/><ellipse cx="713.6" cy="732" rx="23" ry="2.6" fill="#4285f4" opacity=".1"/><ellipse cx="932.8" cy="703.1" rx="23" ry="2.6" fill="#4285f4" opacity=".1"/><ellipse cx="670.8" cy="798.5" rx="34.7" ry="5.1" fill="#4285f4" opacity=".1"/><ellipse cx="201.7" cy="617.6" rx="201.7" ry="12.5" fill="#4285f4" opacity=".1"/><ellipse cx="807.2" cy="614.5" rx="83.9" ry="12.5" fill="#4285f4" opacity=".1"/><path d="M16.1 389c17.4 67.1 54.1 125.2 112.2 153.3 120.7 58.5 393 28.3 596-6.3 105.2-17.9 197.5-67.3 264.6-136.8zM1081.5 73H970c-5.3 0-9.6-3.9-9.6-8.7s4.3-8.7 9.6-8.7h19.3c-5.3 0-9.7-4-9.7-8.7s4.4-8.7 9.7-8.7h-13.8c-5.3 0-9.6-4-9.6-8.8s4.3-8.7 9.6-8.7h58.2c-12.9-5.4-28-9.3-45.3-11.3C829.7-9 773 3.2 753 15.7a234.8 234.8 0 0 1-81.6 32.4c-97.9 18.2-281 40.2-446.8-7-82.5-23.5-143.8 16.2-180.5 82.6h1056.6a143.4 143.4 0 0 0-13-52.7 10.1 10.1 0 0 1-6.3 2zM6.7 249A402.2 402.2 0 0 0 11 366l978.7 32.5a415.1 415.1 0 0 0 68-93.9zm387 83.4h-19.2c5.3 0 9.6 4 9.6 8.8s-4.3 8.7-9.6 8.7H263c-5.3 0-9.6-4-9.6-8.7s4.3-8.7 9.6-8.7h19.3c-5.3 0-9.7-4-9.7-8.8s4.4-8.7 9.7-8.7h-13.8c-5.3 0-9.6-3.9-9.6-8.7s4.3-8.7 9.6-8.7H380c5.3 0 9.6 4 9.6 8.7s-4.3 8.7-9.6 8.7h13.7c5.3 0 9.7 4 9.7 8.7s-4.4 8.8-9.7 8.8zM1100.9 124.2L32.4 147.7a352.9 352.9 0 0 0-25.6 99.9h1075.4a379.2 379.2 0 0 0 15.5-63.7c3.2-20.8 4.5-41 3.2-59.7zm-877.2 77h-19.2c5.3 0 9.6 4 9.6 8.8s-4.3 8.7-9.6 8.7H93c-5.3 0-9.6-4-9.6-8.7s4.3-8.7 9.6-8.7h19.3c-5.3 0-9.7-4-9.7-8.8s4.4-8.7 9.7-8.7H98.5c-5.3 0-9.6-3.9-9.6-8.7s4.3-8.7 9.6-8.7H210c5.3 0 9.6 4 9.6 8.7s-4.3 8.7-9.6 8.7h13.7c5.3 0 9.7 4 9.7 8.7s-4.4 8.8-9.7 8.8z" fill="#4285f4" opacity=".1"/><path fill="#b77b7f" d="M319.8 608.3l4 8.5v-63.3h-4v54.8zM62 608.3l-3.9 8.5v-63.3h4v54.8z"/><path opacity=".1" d="M319.8 608.3l4 8.5v-63.3h-4v54.8zM62 608.3l-3.9 8.5v-63.3h4v54.8z"/><path fill="#b77b7f" d="M78.2 437.4h11.1v77.7H78.2zM300.6 437.4h11.1v77.7h-11.1z"/><path opacity=".1" d="M78.2 437.4h11.1v9.1H78.2zM300.6 437.4h11.1v9.1h-11.1z"/><path fill="#dda2a6" d="M61.2 434.1h266.2v11.6H61.2z"/><path opacity=".1" d="M78.2 450.6h11.1v11.6H78.2zM300.6 450.6h11.1v11.6h-11.1z"/><path fill="#dda2a6" d="M61.2 449.9h266.2v11.6H61.2z"/><path opacity=".1" d="M78.2 466.4h11.1V478H78.2zM300.6 466.4h11.1V478h-11.1z"/><path fill="#dda2a6" d="M61.2 465.6h266.2v11.6H61.2z"/><path opacity=".1" d="M78.2 482.1h11.1v11.6H78.2zM300.6 482.1h11.1v11.6h-11.1z"/><path fill="#dda2a6" d="M61.2 481.4h266.2V493H61.2z"/><path opacity=".1" d="M78.2 497.9h11.1v11.6H78.2zM300.6 497.9h11.1v11.6h-11.1z"/><path fill="#dda2a6" d="M61.2 497.2h266.2v11.6H61.2z"/><g opacity=".1"><circle cx="83.8" cy="440.6" r="1.6"/><circle cx="83.8" cy="456.4" r="1.6"/><circle cx="83.8" cy="472.2" r="1.6"/><circle cx="83.8" cy="487.9" r="1.6"/><circle cx="83.8" cy="503.7" r="1.6"/><circle cx="306.1" cy="440.6" r="1.6"/><circle cx="306.1" cy="456.4" r="1.6"/><circle cx="306.1" cy="472.2" r="1.6"/><circle cx="306.1" cy="487.9" r="1.6"/><circle cx="306.1" cy="503.7" r="1.6"/></g><circle cx="83.8" cy="439.9" r="1.6" fill="#918c9e"/><circle cx="83.8" cy="455.7" r="1.6" fill="#918c9e"/><circle cx="83.8" cy="471.4" r="1.6" fill="#918c9e"/><circle cx="83.8" cy="487.2" r="1.6" fill="#918c9e"/><circle cx="83.8" cy="503" r="1.6" fill="#918c9e"/><circle cx="306.1" cy="439.9" r="1.6" fill="#918c9e"/><circle cx="306.1" cy="455.7" r="1.6" fill="#918c9e"/><circle cx="306.1" cy="471.4" r="1.6" fill="#918c9e"/><circle cx="306.1" cy="487.2" r="1.6" fill="#918c9e"/><circle cx="306.1" cy="503" r="1.6" fill="#918c9e"/><path fill="#dda2a6" d="M333.5 520H54.8l6.4-7.8h266.2l6.1 7.8z"/><path opacity=".1" d="M333.5 520H54.8l6.4-7.8h266.2l6.1 7.8z"/><path fill="#dda2a6" d="M333.5 519.6H54.8l6.4-7.8h266.2l6.1 7.8zM343.3 532.1l-299-.7 10.2-10.7h280.1l8.7 11.4z"/><path opacity=".1" d="M343.3 532.1l-299-.7 10.2-10.7h280.1l8.7 11.4z"/><path fill="#dda2a6" d="M343.3 531.8l-299-.8 10.2-10.6h280.1l8.7 11.4zM352.8 543.2H33.6l9.8-11 300.6.3 8.8 10.7z"/><path fill="#b77b7f" d="M82.1 553.5v22.9l-3.9 7.6-1.3-27.2-.1-3.3H82zM306 553.5l-.2 3.3-1.3 27.2-3.9-7.6v-22.9h5.4z"/><path opacity=".1" d="M82.1 553.5v22.9l-3.9 7.6-1.3-27.2-.1-3.3H82zM306 553.5l-.2 3.3-1.3 27.2-3.9-7.6v-22.9h5.4z"/><path fill="#b77b7f" d="M68.1 551.7h10.2V584H68.1zM304.6 551.7h10.2V584h-10.2z"/><path opacity=".1" d="M78.2 553.5h4v3.3H68v-5h10.1v1.7zM314.7 551.7v5h-14v-3.2h3.9v-1.8h10.1z"/><path fill="#b77b7f" d="M54.8 548.1h272.5v8H54.8z"/><path fill="#b77b7f" d="M46.5 546.6h11.6v70.1H46.5zM335.4 616.8h-11.6v-70.1h11.6z"/><path opacity=".1" d="M54.8 548.1h272.5v.7H54.8z"/><path fill="#dda2a6" d="M33.6 543.2h319.1v4.9H33.6z"/><path fill="#fff" opacity=".1" d="M33.6 543.2h319.1v4.9H33.6z"/><circle cx="51.6" cy="552.4" r="1.6" opacity=".1"/><circle cx="51.6" cy="551.7" r="1.6" fill="#918c9e"/><circle cx="330.5" cy="552.2" r="1.6" opacity=".1"/><circle cx="330.5" cy="551.5" r="1.6" fill="#918c9e"/><ellipse cx="926.1" cy="605.4" rx="20.5" ry="2.8" fill="#4285f4" opacity=".1"/><ellipse cx="1004.5" cy="613.4" rx="20.5" ry="2.8" fill="#4285f4" opacity=".1"/><ellipse cx="1097" cy="602.6" rx="20.5" ry="2.8" fill="#4285f4" opacity=".1"/><ellipse cx="973.1" cy="636" rx="14.6" ry="2" fill="#4285f4" opacity=".1"/><ellipse cx="1054.6" cy="634" rx="14.6" ry="2" fill="#4285f4" opacity=".1"/><path d="M1005 612.7s-28.7-94.2 4.5-132a62.5 62.5 0 0 1 65.7-21.3 23.3 23.3 0 0 1 15 12.5c4.5 9.6 3.7 25-27.5 43.1-52.2 30.2-55.5 71.7-55.5 71.7z" fill="#4285f4"/><path d="M1070.7 472.8s-84.7 26.5-65.7 140M1021.2 482.3s11.7 7.9 8 19.7M1062.2 489.3s-7.1-7.3-15.8-3.3M1028.7 525.8s-12.5-6.4-15.7 1.6M997.7 539s9.4-.7 9.6 3.8" fill="none" stroke="#565987" stroke-miterlimit="10"/><path d="M1003.8 613.5s33.7-68.5 43-67c4.3.7 6.3 5 7.3 9.4a27.6 27.6 0 0 1-1.9 16.6 73.8 73.8 0 0 1-48.4 41z" fill="#4285f4"/><path d="M1046.5 559.5s-35.3 51.2-42.2 53.5M1049.7 567.5h-8.2M1039.8 586.2l-12.9.6M1032 571.3l1.4 6.7M1018.2 591.7l.3 6.2" fill="none" stroke="#565987" stroke-miterlimit="10"/><path d="M1004.8 613.5s-33.6-68.5-42.9-67c-4.4.7-6.4 5-7.3 9.4a27.6 27.6 0 0 0 1.8 16.6 73.8 73.8 0 0 0 48.4 41z" fill="#4285f4"/><path d="M962.2 559.5s35.3 51.2 42.1 53.5M958.9 567.5h8.3M968.8 586.2l12.9.6M976.7 571.3l-1.4 6.7M990.4 591.7l-.2 6.2" fill="none" stroke="#565987" stroke-miterlimit="10"/><path d="M1062.6 629.5a5.8 5.8 0 0 0 2-3 2.6 2.6 0 0 0-1.4-2.9c-1.2-.4-2.6.4-3.5 1.3s-2.2 1.8-3.5 1.6a5.2 5.2 0 0 0 1.6-4.9 2 2 0 0 0-.4-1c-.7-.7-2-.4-2.8.2-2.6 1.8-3.3 5.3-3.3 8.5a16.5 16.5 0 0 1 0-3.5 3.6 3.6 0 0 0-1.3-3.1 4 4 0 0 0-2-.5 4.2 4.2 0 0 0-3.3 1c-1 1-.7 2.8.1 4a12.6 12.6 0 0 0 3.4 2.7 7.5 7.5 0 0 1 2.4 2.3 3 3 0 0 1 .2.4h7.3a20.5 20.5 0 0 0 4.5-3.1zM934.4 602a5.8 5.8 0 0 0 1.9-3 2.6 2.6 0 0 0-1.4-2.9c-1.2-.5-2.5.4-3.5 1.2s-2.1 1.9-3.4 1.7a5.2 5.2 0 0 0 1.6-4.9 2 2 0 0 0-.5-1c-.7-.7-1.9-.4-2.7.2-2.6 1.8-3.3 5.3-3.3 8.5a16.4 16.4 0 0 1 0-3.5 3.6 3.6 0 0 0-1.4-3.1 3.9 3.9 0 0 0-2-.5 4.2 4.2 0 0 0-3.3 1 3.3 3.3 0 0 0 .1 4 12.6 12.6 0 0 0 3.4 2.6 7.6 7.6 0 0 1 2.4 2.3 2.2 2.2 0 0 1 .2.4h7.3a20.2 20.2 0 0 0 4.6-3zM977.1 629.5a5.9 5.9 0 0 0 2-3 2.6 2.6 0 0 0-1.4-2.9c-1.3-.4-2.6.4-3.6 1.3s-2 1.8-3.4 1.6a5.2 5.2 0 0 0 1.6-4.9 1.9 1.9 0 0 0-.4-1c-.7-.7-2-.4-2.8.2-2.6 1.8-3.3 5.3-3.3 8.5a16.5 16.5 0 0 1 0-3.5 3.6 3.6 0 0 0-1.3-3.1 4 4 0 0 0-2-.5 4.2 4.2 0 0 0-3.3 1c-1 1-.7 2.8.1 4a12.6 12.6 0 0 0 3.4 2.7 7.5 7.5 0 0 1 2.4 2.3l.2.4h7.3a20.5 20.5 0 0 0 4.5-3.1zM1098.3 573.7s2.8 3.6-1.3 9-7.3 10-6 13.4c0 0 6.1-10 11-10.2s1.7-6.1-3.7-12.2z" fill="#4285f4"/><path d="M1098.3 573.7a4.4 4.4 0 0 1 .6 1.1c4.8 5.7 7.3 11 2.7 11.1-4.3.1-9.4 7.8-10.7 9.8a3.3 3.3 0 0 0 .2.4s6-10 11-10.2 1.6-6.1-3.8-12.2z" opacity=".1"/><path d="M1103.4 578.3c0 1.3-.1 2.3-.3 2.3s-.3-1-.3-2.3.2-.7.3-.7.3-.6.3.7z" fill="#ffd037"/><path d="M1105.2 579.8c-1.1.6-2.1 1-2.2.8s.8-.7 1.9-1.3.6-.2.7 0 .7 0-.4.5z" fill="#ffd037"/><path d="M1083.8 573.7s-2.7 3.6 1.3 9 7.3 10 6 13.4c0 0-6-10-11-10.2s-1.7-6.1 3.7-12.2z" fill="#4285f4"/><path d="M1083.8 573.7a4.4 4.4 0 0 0-.5 1.1c-4.8 5.7-7.4 11-2.8 11.1 4.3.1 9.5 7.8 10.7 9.8a3.3 3.3 0 0 1-.1.4s-6-10-11-10.2-1.7-6.1 3.7-12.2z" opacity=".1"/><path d="M1078.7 578.3c0 1.3.2 2.3.3 2.3s.4-1 .4-2.3-.2-.7-.4-.7-.3-.6-.3.7z" fill="#ffd037"/><path d="M1077 579.8c1 .6 2 1 2.1.8s-.7-.7-1.8-1.3-.7-.2-.8 0-.7 0 .5.5z" fill="#ffd037"/><path d="M1079.6 595.6s7.7-.2 10-1.8 11.8-3.6 12.4-1 11.5 13.1 2.8 13.2-20.1-1.4-22.4-2.8-2.8-7.6-2.8-7.6z" fill="#a8a8a8"/><path d="M1105 605c-8.7.1-20.1-1.3-22.5-2.7-1.7-1-2.4-4.9-2.7-6.7h-.2s.5 6.2 2.8 7.6 13.8 2.9 22.4 2.8c2.5 0 3.4-1 3.3-2.2-.3.8-1.3 1.3-3.1 1.3z" opacity=".2"/><path d="M137.3 567.2c.5 2 11 3 17 3.3-1.4 1-2.5 2.4-1.8 4.6 1.5 4.3.6 19 .6 19s14.8-1.8 21.1-7.7l5.5 1.1a80.2 80.2 0 0 0-5.5 10.7c-4.1 9.5-7.5 16.9-9 19.9l-.3.6-1.3-.6-5 10.4a48.5 48.5 0 0 1-4 6l-2.9 5.6s-2.6 5.5-2.8 8.7 6.6 3.8 12.8 5.2 3.6-5.6 3.3-8.3 4.3-10.5 4.3-10.5 2.7-3.3 2.6-4.7 2-4.2 2-4.2 2.6-2.9 1.5-3a2.7 2.7 0 0 1-.7-.1l.5-.6c3.1-3.6 11.4-13 14.6-14.9 3.9-2.3 10.7-10.3 10-12.1s7.7-13.7 7.7-13.7a23.2 23.2 0 0 0 4.7-5.6l.2-.3c.6 1.9 1.4 3.2 2.3 3.2 1.2 0 2.2-1.5 3.1-3.5l.3.3c3 3 8.7 8.7 9.6 9.2 1.3.7 3.2 4 5.7 7.2a54.3 54.3 0 0 1 3.8 6.5v3c.2 4.5 6.8 10.1 6.8 10.1s2.4 7.6 4.7 8.2 5.7 6.5 10.6 5.4c1-.2 1.9-1.4 2.6-3.2l.7.8.8.9-.6.3s6 9.2 6.3 10.5a33.9 33.9 0 0 0 2.1 5 48.3 48.3 0 0 1 4.1 6.8c1 2.5 6.3 8 6.3 8s8.3-1.9 12.5-5.1 1-6.2-2.1-7.3-4.8-5.6-4.8-5.6a41 41 0 0 1-3.1-4.4c-.2-.5-2.7-1-2.9-1.8s-3.5-6.5-3.5-6.5-4-5.2-4.6-4.9l-.2-.6-.3-.4c-.8-1.6-3.9-7.4-8-14.7a14.9 14.9 0 0 0-.2-3.7c-.9-2.2-2.2-18-2-20.5s-5.6-8.5-8.8-9.9c-2.4-1-3.7-7.3-4.2-10.5h.3c2.1 0 20.2-.8 20.8-3.5S252 552 250.7 552c-.4-1.2-1.5-4.6-3-5.5-1.8-1.1-2.5-5.3-2.5-5.3s-1.3-3.2-.6-5-2.7-5.4-2.7-5.4a36.6 36.6 0 0 1 .2-4c.2-2.3-1.8-2.6-1.8-2.8a32.8 32.8 0 0 1 0-3.6c.1-1.1-2.1-2.4-1.9-3.6a51 51 0 0 0 0-6.4 4.7 4.7 0 0 1-1-3.6c.3-2.5-2-4.8-2-4.8l-.5-7-3-9.6c-3-9.6-1-5.9-5.2-10.2-1.9-2-4.9-3-7.7-3.4l-.1-1.7c-.6-3.9-1.4-8 .5-11.5 1-2 3.2-3.8 3.2-6.1a4.2 4.2 0 0 0-.4-2c-1.1-2.9-5.1-4.9-5.6-8l.1.2v-.2a3.7 3.7 0 0 0-.3-1.6 1.5 1.5 0 0 0-.1-.3 2.5 2.5 0 0 0-.8-.7l-2-1a4.6 4.6 0 0 0 1-2.5 3.2 3.2 0 0 0-.2-.9 5.4 5.4 0 0 0-1.3-2.4 7 7 0 0 0-2.2-1.6l.3.2a4.7 4.7 0 0 0-1.4-.4 17.6 17.6 0 0 0-2.5 0 19.3 19.3 0 0 1-4.1-.8c-5-1.3-10.5-1.8-15 .7-3.6 2-6 5.5-7.9 9a10.5 10.5 0 0 0-1.4 4.6 17.6 17.6 0 0 0 .8 4.2 1.8 1.8 0 0 1 0 .9c-.2.7-1.1.9-1.8 1.2a5.3 5.3 0 0 0-2.7 3 15.3 15.3 0 0 0-.8 4 5.5 5.5 0 0 0 .2 2.6c.6 1.4 2.2 2.1 3.6 2.8a11.6 11.6 0 0 1 4.2 3 76.5 76.5 0 0 0-8.6 7.6c-4 1.2-8.4 2.7-9.4 4.2-2 2.8-3 1.5-3.3 11.6s-1.5 13.6-1.5 13.6v14s1.5 9.2 0 11.7-1.2 12.7-1.2 12.7 2 9.8-1.1 12.9-3.3 9-3.3 9l.2.1c-5.6.4-17.3 1.3-16.8 3.3zM171 551c1.1-3 3.5-11.3 3.5-11.3s1.3-6.2 0-7.4 1.9-9.6 1.9-9.6a10 10 0 0 1 1.1 5.6c-.2 3.2 0 10.2 0 10.2s-2.1 6.8-1.8 10-5.2 6.8-4.4 8a15.3 15.3 0 0 1 1.4 3.8h-2c-.2-3.5-.4-7.6.3-9.3z" transform="translate(-41.3 -38)" fill="url(#a)"/><path d="M208.4 515.4s20 .7 19.3 3.3-18.2 3.4-20.2 3.4-5-3.7-5-3.7z" fill="#efb7b9"/><path fill="#67647e" d="M196 516.9h-11.5v-10.6H196z"/><path opacity=".1" d="M196 516.9h-11.5v-10.6H196z"/><path fill="#67647e" d="M202.1 517.3l10.6 21.4-13.4 4.4-10.9-9.3-5.1-10-10.4.9-11 5.5-9 5.5-5.5 10.1-7.7 4.4-16.7-3.5-2.4-11.4 13.6-9 4.9-7.5 20-3 5.8-8.6 20 4.9 17.2 5.2z"/><path opacity=".1" d="M202.1 517.5L213 541l-13.6 2.4-10.9-9.3-5.1-10-10.4.9-11 5.5-9 5.5-5.5 10.1-7.7 4.4L123 547l-2.4-11.4 13.6-9 4.9-7.5 20-3 5.8-8.6 20 4.9 17.2 5.2z"/><path d="M174.3 405a2.4 2.4 0 0 1 .8.6 3.8 3.8 0 0 1 .3 1.6c.4 3.9 5.8 6 5.7 9.8 0 2.3-2 4-3.2 6-1.8 3.4-1 7.5-.4 11.3.3 3 .3 6.3-1.9 8.2a34 34 0 0 0-2.9 2.1c-1.7 1.8-1.3 4.7-2.4 6.8a1.9 1.9 0 0 1-.5.7 2 2 0 0 1-.7.3 5.9 5.9 0 0 1-6-2 10.4 10.4 0 0 1-2.1-6.3 51.1 51.1 0 0 1 .5-6.8c.4-4.3.3-8.7.6-13a10.5 10.5 0 0 1 1-4l1-1.9a10 10 0 0 0 .8-2.8l1.2-7.7c.2-1.5.4-4.3 2.2-4.8s4.6 1 6 1.8z" fill="#e3787d"/><path d="M174.3 405a2.4 2.4 0 0 1 .8.6 3.8 3.8 0 0 1 .3 1.6c.4 3.9 5.8 6 5.7 9.8 0 2.3-2 4-3.2 6-1.8 3.4-1 7.5-.4 11.3.3 3 .3 6.3-1.9 8.2a34 34 0 0 0-2.9 2.1c-1.7 1.8-1.3 4.7-2.4 6.8a1.9 1.9 0 0 1-.5.7 2 2 0 0 1-.7.3 5.9 5.9 0 0 1-6-2 10.4 10.4 0 0 1-2.1-6.3 51.1 51.1 0 0 1 .5-6.8c.4-4.3.3-8.7.6-13a10.5 10.5 0 0 1 1-4l1-1.9a10 10 0 0 0 .8-2.8l1.2-7.7c.2-1.5.4-4.3 2.2-4.8s4.6 1 6 1.8z" fill="#e3787d"/><g opacity=".1"><path d="M175 406v-.3a1.5 1.5 0 0 1 .2.3 3.5 3.5 0 0 1 .3 1.5v.2a5 5 0 0 1-.5-1.7zM162.7 449.2a5.8 5.8 0 0 0 6.1 2 2 2 0 0 0 .7-.3 2.1 2.1 0 0 0 .4-.6c1.1-2.2.8-5.1 2.4-6.9a35.6 35.6 0 0 1 3-2c2.2-2 2.2-5.3 1.8-8.2-.5-3.9-1.3-8 .5-11.4 1-2 3.1-3.7 3.1-6a3.4 3.4 0 0 0 0-.7 4.4 4.4 0 0 1 .6 2.2c0 2.3-2 4-3.1 6-1.9 3.5-1 7.6-.5 11.4.3 2.9.3 6.3-1.9 8.2-.9.8-2 1.2-2.9 2-1.7 1.8-1.3 4.7-2.4 6.9a2 2 0 0 1-.5.6 2.2 2.2 0 0 1-.6.3 5.8 5.8 0 0 1-6.1-2 8.8 8.8 0 0 1-1.7-3.5 8 8 0 0 0 1.1 2z"/></g><path d="M117.6 527s-20 .8-19.4 3.4 18.2 3.4 20.3 3.4 5-3.8 5-3.8z" fill="#efb7b9"/><path d="M171.4 436s9.8-.6 13.8 3.7 2.3.6 5.1 10l3 9.6.3 6.8s2.2 2.3 2 4.7a4.6 4.6 0 0 0 1 3.6 51.5 51.5 0 0 1 0 6.3c-.2 1.2 2 2.4 1.8 3.5a31.9 31.9 0 0 0 0 3.6c0 .1 2 .5 1.8 2.7a37 37 0 0 0-.2 4s3.2 3.4 2.6 5.3.6 5 .6 5 .7 4 2.4 5.1 3 6 3 6l-1.6 4.3c0 .2 1.2 10.9 4.3 12.2s8.8 7.2 8.6 9.8 1 18 1.8 20.2 0 24.4-4.8 25.5-8.2-4.7-10.4-5.3-4.5-8-4.5-8-6.5-5.6-6.5-10-.3-10-.3-10 7.6-12.8 9.1-13.8 5.8-6.4 2.5-11a49.8 49.8 0 0 1-5.4-10.7l-3.6-3.2-3-11.5-5.5-17.9-5.2-17.6-4.4-18.5-11.7-8.1s-2-5.4 3.4-6.4z" fill="#67647e"/><path d="M175 537.2l1.9 1.9c2.9 3 8.4 8.5 9.3 9 1.2.7 3 3.9 5.5 7.1s5.6 10.3 5.6 10.3 8 11.3 12.7 12.5c3.2.8 7.6 5 10 7.6l2 2 9.2-3.5-1.2-3.2-.2-.4c-.9-1.7-4.5-8.8-9.4-17a112.3 112.3 0 0 0-14-18.4s-7.3-6.8-7.6-9.9a38.9 38.9 0 0 1 .1-5l.4-4.2-11.2-7.2-8.6 3.5zM124.8 582l9.1 4.4 1.2-1.4c3-3.6 11.1-12.9 14.2-14.7 3.8-2.3 10.5-10.1 9.8-12s7.5-13.5 7.5-13.5a22.3 22.3 0 0 0 4.5-5.5 6.2 6.2 0 0 0 1-4.3c-1.2-4.3-4.8-13.7-4.8-13.7l-1.8-3.1a129 129 0 0 0-6.4-2.4l-6.2-.6-7.9 6.6.8 3.8a63 63 0 0 0 3.3 13.2c1.2.7-5.3 6-5.3 6s-4.3 3.7-9.6 16c-4 9.5-7.3 16.8-8.7 19.7z" fill="#efb7b9"/><path d="M179.5 522.3l-4.5 15 1.9 1.8a78 78 0 0 0 2.8-9.8c1.2-4.9 13.5-3.6 15.7-3.6.9 0 2.2 2.1 3.5 4.4l.4-4-11.2-7.3zM145 521.9l.8 3.8a16.3 16.3 0 0 1 4-5.6c6-5.3 13.9-.7 13.9-.7.8.3 1.2 1.1 2 2.2a18.6 18.6 0 0 1 4.4 10.9 37.7 37.7 0 0 0 1 6.9 6.2 6.2 0 0 0 1-4.4c-1.2-4.3-4.7-13.7-4.7-13.7l-1.9-3a129 129 0 0 0-6.4-2.4l-6.2-.7z" opacity=".1"/><path d="M135.7 528c.1 2 8 5.4 8 5.4s0-9 6-14.3 14-.7 14-.7c.8.3 1.2 1.1 2 2.2a18.6 18.6 0 0 1 4.4 10.9c.2 4.5 1.5 10.8 3.4 10.7 3 0 5-9 6.2-14s13.5-3.5 15.7-3.5 6.2 11.1 7.7 9.7-1.7-12-1.7-12l-10.3-12.5-2.2-2.6-45.4 2.4-2.2 3.5-2.2 3.4s-3.4 9.2-3.4 11.3z" fill="#444053"/><path d="M181.6 514.3s-8.3 9-8.7 10.4a42.9 42.9 0 0 0-.8 4.6 31.1 31.1 0 0 0-.4-4c-.3-1 1-3 1.8-3.7a13 13 0 0 0 2.8-2.5l1.3-6.2 3.4-.7zM166 513.4s5.3 6 5.1 7-5.1-7-5.1-7z" opacity=".1"/><path d="M138.8 441.6l6.1 8.5 17 3.4s17-4.3 5.4-8.7a6.7 6.7 0 0 1-2.8-2c-2-2.4-1.3-6 .4-9.7a53.1 53.1 0 0 1 7.7-11.2s-24-10.6-21.3.5a11.1 11.1 0 0 1-.2 5.9c-1.4 5-6 9-9 11.2a30.4 30.4 0 0 1-3.3 2z" fill="#efb7b9"/><path d="M138.8 441.6l6.1 8.5 17 3.4s17-4.3 5.4-8.7a6.7 6.7 0 0 1-2.8-2c-2.8 1.3-5.6 2.3-7 1.8 0 0-9.6-2.7-15.5-5a30.4 30.4 0 0 1-3.2 2zM141.2 513.6a64.4 64.4 0 0 1 7.2-1.7c2.3-.4 4.6-.6 5.6 0 2.4 1.5 8.2 5 10.3 5a3 3 0 0 0 2.7-1.7 48 48 0 0 1 10.4 0c2.7.4 9.2-2.8 13.2-5l.5-.3-2.2-2.6-45.4 2.4-2.2 3.5z" opacity=".1"/><path d="M142.9 501.2l-1.7 11.4a67 67 0 0 1 7.2-1.7c2.3-.5 4.6-.6 5.6 0 2.4 1.5 8.2 5 10.3 5a3 3 0 0 0 2.7-1.7 48 48 0 0 1 10.4 0c2.7.4 9.2-2.9 13.2-5l3.4-2-2.6-9.1-7.8-8.4-1.2-12.1-2-14-2.8-8.6-5.3-12.4-1-2.2-2.5 1.4-2.3 1.2c-3.3 1.6-7.3 3.2-9 2.6 0 0-8.5-2.4-14.4-4.7-2.8-1-5-2-5.5-2.6a.6.6 0 0 1-.2-.3v.3c-.4 3.8-1.7 32.6-1.7 32.6z" fill="#a36468"/><path d="M135.7 471l7.2 30.2-1.7 11.4a67 67 0 0 1 7.2-1.7c.4-4.7.8-12.6-.4-15.3-1.8-3.8-2.8-16-2.8-16L143 441l-.2-3.7a28.2 28.2 0 0 0-5.3 1l-.2.1c-.4 3.8-1.7 32.6-1.7 32.6zM121.4 528.7c4.4 1.4 10.5 2.8 11 1.2.5-1 .5-3.5.4-6.2-2.2.1-5.4.6-6 1.8s-3.5 2-5.4 3.2z" opacity=".1"/><path d="M140.8 437.2c-.4-.3-14.3 2.8-16.3 5.6s-2.9 1.6-3.2 11.4-1.4 13.5-1.4 13.5v13.8s1.4 9.1 0 11.5-1.2 12.6-1.2 12.6 2 9.6-1.1 12.7-3.2 8.8-3.2 8.8 15 5.4 16 2.8-.5-12.5.6-15.4 3.5-11.2 3.5-11.2 1.3-6.1 0-7.3 1.8-9.5 1.8-9.5a10 10 0 0 1 1.1 5.5c-.2 3.2 0 10.2 0 10.2s-2 6.6-1.7 9.8-5 6.7-4.3 8a15.2 15.2 0 0 1 1.3 3.6s-7.2 0-8 1.9-6.6 2.6-7.1 5.1-6 3.3-4.5 7.5.5 18.7.5 18.7 25.9-3.1 23-15-16-6.5-16-6.5 10.5-6.3 16.7-5.5 8.6-15.4 8.6-15.4 1.8-15 0-18.8-2.8-16-2.8-16z" fill="#67647e"/><path d="M129 521s-.6-1.3-5.2-.5-6.8-.3-6.8-.3 9.2 4.2 12 .7zM130.3 462c0 .2-3.3 5.2-.8 9.2s4.7 10.5 5.2 11.7l1 3.1" opacity=".1"/><path d="M142.4 431s-12 9-12 13.3a5 5 0 0 0 3.6 1.3c2.5 0 7-1.2 7.5-4s2.4 0 1.3 1.5l-1.7 2.3s-11.4 3-13.5 4.5.9 3.2.9 3.2 3.1 5.8 3 6.8 7.8 13.5 7.8 13.5 2.7 13.6 2.6 16.1l-.3 8 5.1 7s1.3-21.8.5-24.7-3.1-21.5-3.1-21.5-2.6-11.2-1.6-12.5 1.4-5.3 1.4-5.3z" opacity=".1"/><path d="M143.4 430.5s-12 9-12 13.3a4.9 4.9 0 0 0 3.6 1.3c2.5 0 7-1.2 7.5-4s2.5 0 1.4 1.5l-1.8 2.2s-11.4 3.1-13.5 4.6.9 3.2.9 3.2 3.2 5.8 3 6.8 7.9 13.5 7.9 13.5 2.7 13.6 2.5 16.1l-.3 8 4.1 7s2.3-21.8 1.5-24.7-3-21.4-3-21.4-2.7-11.2-1.6-12.5 1.4-5.3 1.4-5.3z" fill="#67647e"/><path d="M143.4 430.5s-12 9-12 13.3a4.9 4.9 0 0 0 3.6 1.3c2.5 0 7-1.2 7.5-4s2.5 0 1.4 1.5l-1.8 2.2s-11.4 3.1-13.5 4.6.9 3.2.9 3.2 3.2 5.8 3 6.8 7.9 13.5 7.9 13.5 2.7 13.6 2.5 16.1l-.3 8 4.1 7s2.3-21.8 1.5-24.7-3-21.4-3-21.4-2.7-11.2-1.6-12.5 1.4-5.3 1.4-5.3zM166 441.2a8.2 8.2 0 0 0 .5 1.8l1.8 5.3c1 3 3.7 8.5 5.4 13.7s4.1 16.3 4.1 16.3-.5 10.1 3 12.7 7.2 12 7.2 12 1.2 3.1 2.6 6.1c2-1 3.4-2 3.4-2l-2.6-9-7.8-8.4-1.2-12.1-2-14-2.8-8.6-5.3-12.5c-1.4 0-2.3-.2-2.3-.2l-1.2-.6c-1.1-.5-2.8-1.3-2.8-.5z" opacity=".1"/><path d="M172 443s11.9 1 14.6.6 1.5 5.7 1.5 5.7 2 12.3 1.6 13.6-2.9 10.8-1.4 13.2 6 14.2 6 14.2L197 501c1.3 5.3 4.3 15.5 5 16.4s7.4 12.7 6.7 14.5-10.9-15.6-12.9-17-5.8-11.4-5.8-11.4-3.9-9.4-7.2-12-3-12.7-3-12.7-2.4-11.1-4.1-16.3-4.5-10.7-5.4-13.7-2.1-6-2.2-7.1 4 1.2 4 1.2z" opacity=".1"/><path d="M171 442.4s11.9 1 14.5.7 1.6 5.7 1.6 5.7 2 12.2 1.6 13.5-3 10.9-1.4 13.2 6 14.3 6 14.3l2.7 10.6c1.3 5.3 4.3 15.5 5 16.4s7.4 12.7 6.6 14.6-10.8-15.6-12.8-17.1-5.8-11.4-5.8-11.4-3.9-9.4-7.3-12-2.8-12.7-2.8-12.7-2.5-11-4.2-16.3-4.5-10.6-5.4-13.7-2.2-6-2.2-7 3.9 1.2 3.9 1.2z" fill="#67647e"/><path d="M171 442.4s11.9 1 14.5.7 1.6 5.7 1.6 5.7 2 12.2 1.6 13.5-3 10.9-1.4 13.2 6 14.3 6 14.3l2.7 10.6c1.3 5.3 4.3 15.5 5 16.4s7.4 12.7 6.6 14.6-10.8-15.6-12.8-17.1-5.8-11.4-5.8-11.4-3.9-9.4-7.3-12-2.8-12.7-2.8-12.7-2.5-11-4.2-16.3-4.5-10.6-5.4-13.7-2.2-6-2.2-7 3.9 1.2 3.9 1.2zM175.6 474s-1.5 7.4 1 10.9-.3-9.3-1-10.9zM149.3 498.4s6.8 1.2 9 4.8-9-4.8-9-4.8zM149.3 505.7s8.7 2.7 7 3.7-5.5-.8-6.6-.5-.4-3.2-.4-3.2zM220 585.5l2 2.2 9.2-3.6-1.2-3.2-.2-.4-4.7 3z" opacity=".1"/><path d="M225.6 584.6l4.7-3c.6-.4 4.5 4.7 4.5 4.7a70.7 70.7 0 0 1 3.4 6.4c.1.8 2.6 1.3 2.7 1.9a39.8 39.8 0 0 0 3.1 4.3s1.7 4.3 4.6 5.5 6.1 4 2 7.2-12 5-12 5-5.2-5.4-6.2-7.8a46.7 46.7 0 0 0-4-6.7 33 33 0 0 1-2-5c-.3-1.3-6.2-10.4-6.2-10.4z" fill="#444053"/><path d="M124.8 582l9.1 4.4 1.2-1.4a38.2 38.2 0 0 1-4.4-2.2l-5.2-2.3z" opacity=".1"/><path d="M130.2 583.3s4 2.4 5.2 2.4-1.6 3-1.6 3-2 2.7-1.9 4-2.5 4.7-2.5 4.7-4.4 7.7-4.1 10.3 2.8 9.6-3.2 8.2-12.6-2-12.5-5.1 2.8-8.6 2.8-8.6l2.7-5.4a49 49 0 0 0 3.8-6l5-10.3z" fill="#444053"/><path d="M167 445.3c-5.8-2.2-4.6-7.9-1.9-13a15.3 15.3 0 0 0 7.2-5.6c1.7.7 3.3 2.8 2.6 4.5a6.6 6.6 0 0 1-1 1.5 9.8 9.8 0 0 0 .9 12.3c.4.5 1 1 1 1.7 0 .9-.9 1.5-1.7 1.8a11.2 11.2 0 0 1-3.3.6c.5-1.2-.4-2.5-3.9-3.8z" fill="#e3787d"/><path d="M130.4 523.7s-6.2.3-8.2 1.6a8 8 0 0 0-2.9 3.4" opacity=".1"/><g opacity=".1"><path d="M174 432.8a9.8 9.8 0 0 0-1 9.5 9.8 9.8 0 0 1 .6-10.5 6 6 0 0 0 1-1.5 2.5 2.5 0 0 0 0-1.7 3 3 0 0 1 .5 2.7 6.3 6.3 0 0 1-1 1.5zM171 448.2a11.4 11.4 0 0 0 2.7-.6c.8-.4 1.7-1 1.8-1.8a.6.6 0 0 0 0-.1 1.8 1.8 0 0 1 .5 1.1c0 1-1 1.5-1.7 1.8a11.3 11.3 0 0 1-3.3.6 1.5 1.5 0 0 0 0-1zM166.5 444.4c2.8 1 3.9 2 4 3a8.9 8.9 0 0 0-3.5-2 5.9 5.9 0 0 1-3.7-3.5 6.3 6.3 0 0 0 3.2 2.5z"/></g><path d="M151.1 428.3c2.1 3.8 8.8 5.6 9 5.6a15.2 15.2 0 0 0 4.8-.8 53.1 53.1 0 0 1 7.7-11.2s-24-10.6-21.3.5a11.1 11.1 0 0 1-.2 5.9z" opacity=".1"/><path d="M145 417.6a15.2 15.2 0 0 0 14 15.2h1.2a15.2 15.2 0 1 0-15.2-15.2z" fill="#efb7b9"/><path d="M145 417.6a15.2 15.2 0 0 0 14 15.2 21.8 21.8 0 0 0 5.4-7.2 7 7 0 0 0 1-3.8c-.2-1.1-.8-2.2-1-3.3-.4-1.8.6-3.7 1.5-5.3a19.1 19.1 0 0 1 3-4.4l2-2a15.2 15.2 0 0 0-26 10.8z" opacity=".1"/><path d="M171.7 404.9a6 6 0 0 0 1.6-3.4 4.6 4.6 0 0 0-1.4-3.1 5.9 5.9 0 0 0-3.2-2 18.2 18.2 0 0 0-2.4 0 19 19 0 0 1-4-.8c-4.9-1.2-10.3-1.7-14.6.8-3.5 1.9-5.8 5.4-7.7 8.9a10.6 10.6 0 0 0-1.4 4.4 18.2 18.2 0 0 0 .8 4.2 1.8 1.8 0 0 1 0 .9c-.2.7-1.1.9-1.8 1.2a5.2 5.2 0 0 0-2.6 3 15.2 15.2 0 0 0-.7 4 5.3 5.3 0 0 0 .1 2.5c.6 1.5 2.2 2.1 3.6 2.8a11.2 11.2 0 0 1 4 3 5.5 5.5 0 0 1 1.2 4.8 5.8 5.8 0 0 1-3 3.2 17.8 17.8 0 0 1-4.3 1.4 4.6 4.6 0 0 0-1.9.7c-1.3 1-1.2 3-.2 4.3a6.5 6.5 0 0 0 4.2 2 15.5 15.5 0 0 0 10.3-2c1.9-1.2 3.6-3 4-5 .2-1.4 0-2.9.5-4 .7-1.7 2.6-2.4 4-3.4 3.2-1.8 5.3-5 7-8.2a6.9 6.9 0 0 0 1-3.8c-.2-1.1-.8-2.1-1-3.3-.4-1.8.6-3.7 1.5-5.3a19.6 19.6 0 0 1 3-4.4 31.5 31.5 0 0 0 3.4-3.4z" fill="#e3787d"/><g opacity=".1"><path d="M136.4 427a14 14 0 0 1 2.7 1.7l-1.1-.6a10.8 10.8 0 0 1-2.7-1.6zM136.5 446.6a15.6 15.6 0 0 0 10.2-2.2c2-1.1 3.7-2.8 4-5 .3-1.3 0-2.8.6-4 .7-1.6 2.5-2.3 4-3.3 3.1-1.9 5.3-5 7-8.2a7 7 0 0 0 1-3.8c-.2-1.1-.9-2.2-1-3.3-.4-1.8.5-3.7 1.5-5.3a19.3 19.3 0 0 1 3-4.4 30.6 30.6 0 0 0 3.2-3.4 6 6 0 0 0 1.6-3.4 4.6 4.6 0 0 0-1.3-3 6.3 6.3 0 0 0-.6-.7 6.5 6.5 0 0 1 2 1.6 4.6 4.6 0 0 1 1.5 3.2 5.8 5.8 0 0 1-1.6 3.3 30.6 30.6 0 0 1-3.3 3.4 19.4 19.4 0 0 0-3 4.4c-1 1.7-1.9 3.5-1.5 5.4.2 1 .8 2.1 1 3.2a6.9 6.9 0 0 1-1 3.8 19.9 19.9 0 0 1-6.9 8.3c-1.5.9-3.3 1.6-4 3.2-.6 1.3-.4 2.7-.6 4-.4 2.2-2.2 3.9-4 5a15.6 15.6 0 0 1-10.3 2.2 7 7 0 0 1-3.9-1.7 9.2 9.2 0 0 0 2.4.7z"/></g><path d="M186.4 613.7l-.6 5.6-4.3.4-1.8.2a253 253 0 0 1-14 .5 45 45 0 0 1-6.4-.5c-3.5-.5-6-1.5-6.3-3.3a10.2 10.2 0 0 1-.1-2.3c.3-4 3.6-3.3 3.6-3.3-.2-1 .6-4.5 1.2-7l.8-2.8 23.1-1.6h.1a1.1 1.1 0 0 1 1.2 1.2c-.2 2.8-.4 9.1.8 9.3a3.5 3.5 0 0 1 2.8 2 9.3 9.3 0 0 1-.1 1.6zM166.7 583.3s-8.7 10.5-12.9 7.6l-.3-.2a10.7 10.7 0 0 1-3.7-7.4l-.4-2.3a16 16 0 0 1 .8-7.6 6.5 6.5 0 0 1 .2-.6c3-.9 16.3 10.5 16.3 10.5z" fill="#d3899b"/><path d="M162 584.2s-2.7 2-6.6 5.1a14.6 14.6 0 0 1-1.9 1.4 10.7 10.7 0 0 1-3.7-7.4l-.4-2.2a16 16 0 0 1 .8-7.7c5.4.4 11.9 10.8 11.9 10.8z" fill="#eec5cd"/><path d="M159 583.2s-1.4 1-3.5 2.7a7 7 0 0 1-1 .7 5.7 5.7 0 0 1-2-3.9c0-.4 0-.8-.2-1.2a8.4 8.4 0 0 1 .5-4c2.8.1 6.3 5.7 6.3 5.7z" opacity=".1"/><path d="M172.4 583.3s8.7 10.5 13 7.6l.2-.2a10.7 10.7 0 0 0 3.8-7.4l.3-2.3a15.8 15.8 0 0 0-.8-7.6c0-.4-.2-.6-.2-.6-2.9-.9-16.3 10.5-16.3 10.5z" fill="#d3899b"/><path d="M177 584.2s2.8 2 6.7 5.1a14.6 14.6 0 0 0 2 1.4 10.7 10.7 0 0 0 3.7-7.4l.3-2.2a15.8 15.8 0 0 0-.7-7.7c-5.5.4-12 10.8-12 10.8z" fill="#eec5cd"/><path d="M180 583.2l3.6 2.7a7.7 7.7 0 0 0 1 .7 5.7 5.7 0 0 0 2-3.9l.2-1.2a8.4 8.4 0 0 0-.4-4c-2.9.1-6.3 5.7-6.3 5.7zM181.6 599.6a20.6 20.6 0 0 1-3.3 4.3c-3.5 3-18.4 1.8-19.4 1.7-.2 0-.6-.7-1.1-1.7l.7-2.7z" opacity=".1"/><path d="M169.8 582.4H168c-3.2 0-13.7 0-14.8 4.3-1.4 5 4.7 18.4 5.7 18.6s16 1.4 19.4-1.7 8-12.7 7.7-13.6c0 0 4.4-9-16.2-7.6z" fill="#d3899b"/><path d="M169.5 590.5a11 11 0 0 0-11.3 6.4 9.2 9.2 0 0 0 .6 9.3c1.2 1.7 3 3 5.5 2 5.4-2.3 5.2-17.7 5.2-17.7z" opacity=".1"/><path d="M169.2 590a11 11 0 0 0-11.3 6.4 9.2 9.2 0 0 0 .7 9.3c1.2 1.7 3 3 5.4 2 5.5-2.3 5.2-17.7 5.2-17.7z" opacity=".1"/><path d="M169.2 590.3a11 11 0 0 0-11.3 6.4 9.2 9.2 0 0 0 .7 9.3c1.2 1.6 3 3 5.4 1.9 5.5-2.3 5.2-17.6 5.2-17.6z" fill="#eec5cd"/><path d="M161 597s-1.1 1-.7 1.2.6-1.3.6-1.3zM162 598.1s-.5 1.3-.1 1.4.6-.9.6-.9zM159.5 600s-.5 1.5 0 1.5 0-1.5 0-1.5z" fill="#3f2b3b"/><path d="M158.8 604a4.3 4.3 0 0 0 4 2.7M161.5 604.9a2 2 0 0 0 2.4.3" fill="none" stroke="#3f2b3b" stroke-miterlimit="10"/><path d="M170.4 590.5a11 11 0 0 1 11.3 6.4 9.2 9.2 0 0 1-.6 9.3c-1.2 1.7-3 3-5.4 2-5.5-2.3-5.3-17.7-5.3-17.7z" opacity=".1"/><path d="M170.7 590a11 11 0 0 1 11.3 6.4 9.3 9.3 0 0 1-.7 9.3c-1.2 1.7-3 3-5.4 2-5.5-2.3-5.2-17.7-5.2-17.7z" opacity=".1"/><path d="M170.7 590.3a11 11 0 0 1 11.3 6.4 9.3 9.3 0 0 1-.7 9.3c-1.2 1.6-3 3-5.4 1.9-5.5-2.3-5.2-17.6-5.2-17.6z" fill="#eec5cd"/><path d="M179 597s1 1 .6 1.2-.6-1.3-.6-1.3zM177.9 598.1s.5 1.3.1 1.4-.6-.9-.6-.9zM180.4 600s.6 1.5 0 1.5 0-1.5 0-1.5z" fill="#3f2b3b"/><path d="M181 604a4.2 4.2 0 0 1-4 2.7M178.5 604.9a2 2 0 0 1-2.5.3" fill="none" stroke="#3f2b3b" stroke-miterlimit="10"/><path d="M166.3 612.2a11 11 0 0 1 8 0z" fill="#3f2b3b"/><path d="M159.3 620c-3.5-.6-6-1.6-6.3-3.4a10.2 10.2 0 0 1-.1-2.3 5.1 5.1 0 0 1 1.4-.5c.6-.2 1.4 0 3.1.4s1.6 2.5 2 5.1a1.9 1.9 0 0 1 0 .6z" opacity=".1"/><path d="M154 614s-4.6.9-2.1 4.9a1.7 1.7 0 0 0 .8.7c.3.1.6.1.6-.3l2 2.4s4.2.4 3.8-2.2-.2-4.6-2-5-2.4-.7-3-.5z" fill="#d3899b"/><path d="M155.1 616.7s1 2.3 2.4.4M152.9 617.6s.5 2.1 2.4.5" fill="none" stroke="#3f2b3b" stroke-miterlimit="10"/><path d="M186.4 613.7l-.6 5.6-4.3.4a2.3 2.3 0 0 1 0-.4c.3-2.6.2-4.6 2-5.1a7 7 0 0 1 2.9-.5z" opacity=".1"/><path d="M186.8 614s4.7.9 2.2 4.9a1.7 1.7 0 0 1-.9.7c-.3.1-.6.1-.6-.3l-2 2.4s-4.1.4-3.8-2.2.3-4.6 2-5 2.5-.7 3.1-.5z" fill="#d3899b"/><path d="M185.7 616.7s-1 2.3-2.3.4M188 617.6s-.5 2.1-2.5.5" fill="none" stroke="#3f2b3b" stroke-miterlimit="10"/><path d="M165.6 620.4c-1.5 0-3-.1-4.4-.3l-1.4-4.7a3.2 3.2 0 0 1-.2-.8 3 3 0 0 1 6 0v5.8z" opacity=".1"/><path d="M159.5 615.4l1.7 5.6s-2.8 0-2 1.7c0 0 .7.6 1 .4 0 0-.4 1.1 1 1.1 0 0 1.6.9 2.2.3s2-1.5 2-1.9v-8a3 3 0 0 0-3-3 3 3 0 0 0-2.9 3.8z" fill="#d3899b"/><path d="M161.7 622.4s-1.2 1.2-.5 1.9M161.2 621.7a1.6 1.6 0 0 0-1.1 1.4" fill="none" stroke="#3f2b3b" stroke-miterlimit="10"/><path d="M181.1 614.6a2.8 2.8 0 0 1-.1.8l-1.3 4.5-4.6.3v-5.7a3 3 0 0 1 6 0z" opacity=".1"/><path d="M181.2 615.4l-1.6 5.5s2.8 0 2 1.7c0 0-.7.7-1 .5 0 0 .4 1.1-1 1.1 0 0-1.6.9-2.2.2s-1.9-1.5-2-1.8 0-4.9 0-8a3 3 0 0 1 3-3 3 3 0 0 1 2.8 3.8z" fill="#d3899b"/><path d="M179 622.4s1.2 1.2.6 1.9M179.6 621.7a1.6 1.6 0 0 1 1 1.4" fill="none" stroke="#3f2b3b" stroke-miterlimit="10"/><path d="M169.2 589s-5.7-.1-5.8 4.3 8.9 2.5 8.9 2.5 3.8-.5 3.1-3.2-2-3.3-6.2-3.6z" opacity=".1"/><path d="M169.2 588.6s-5.7-.2-5.8 4.2 8.9 2.5 8.9 2.5 3.8-.5 3.1-3.1-2-3.4-6.2-3.6z" opacity=".1"/><path d="M169.2 588.8s-5.7-.2-5.8 4.2 8.9 2.6 8.9 2.6 3.8-.5 3.1-3.2-2-3.4-6.2-3.6z" fill="#3f2b3b"/><path d="M156.5 611s2 .7 2.3 2M183.7 610s-1.4.6-1.3 3" opacity=".1"/><ellipse cx="197.8" cy="657.8" rx=".9" ry="1.5" transform="rotate(-30 106.1 715.8)" fill="#eec5cd"/><ellipse cx="225.7" cy="657.8" rx="1.5" ry=".9" transform="rotate(-60 172 674.5)" fill="#eec5cd"/><ellipse cx="49" cy="817.6" rx="36.4" ry="6.2" fill="#4285f4" opacity=".1"/><path d="M65.2 754.8s-50.7 26.2-24.5 57c0 0 2.4 6.7 9.6 6.2 0 0-1.4-2.6 4-4.6a26.6 26.6 0 0 0 5.5-3 12.9 12.9 0 0 0 4.9-6.5S75 790 67 764.4c0 0 1-7.3.1-8.4l-6.1 8.4s6.3 4.3 7 10.5c0 0-6.6-10.5-8-9.3l-3 4.6s11 7.5 11.8 17.2c0 0-6.2-13.6-13-15.5l-3.7 6.8s12 7.4 13.4 18.4c0 0-7-14-14.2-16.8l-2.8 7.2s11.6 7.4 12.7 16.6c0 0-9.7-15.4-13.2-14.9 0 0-2.2 6.8-2 9 0 0 8.3 5.4 8.4 10.8 0 0-7.5-9.6-8.7-9 0 0-.5 9.7 1.8 14.7 0 0-4-7.1-3.3-14.6 0 0-4 3.4-4.9 7.8 0 0-2.2-5.3 5-10.2 0 0 .7-7.5 1.5-8.4 0 0-7.7 3.8-11 8.5 0 0 1.2-7 11.7-10.4l2.7-7.4s-10.6 4.5-13.8 8.5c0 0 2.3-7 14.6-10.3l3.7-6.7s-9.4 3.1-14 6.7c0 0 3.6-5.9 15-8.6l3-4.2s-6.7 2.4-8.6 3.3-2.3.4-2.3.4a24.6 24.6 0 0 1 12.2-5.5s6.7-8.3 6.2-8.8z" fill="#4285f4"/><ellipse cx="166.1" cy="768.8" rx="27.2" ry="4.7" fill="#4285f4" opacity=".1"/><path d="M178.3 722s-37.9 19.5-18.3 42.5c0 0 1.8 5 7.1 4.7 0 0-1-2 3-3.5a19.8 19.8 0 0 0 4.1-2.2 9.6 9.6 0 0 0 3.7-4.9s7.7-10.3 1.7-29.5c0 0 .8-5.4.1-6.3l-4.6 6.3s4.8 3.2 5.3 7.9c0 0-5-7.9-6-7l-2.3 3.4s8.3 5.6 8.9 12.9c0 0-4.7-10.2-9.7-11.6l-2.8 5s9 5.6 10 13.8c0 0-5.2-10.4-10.6-12.5l-2 5.4s8.6 5.5 9.4 12.4c0 0-7.3-11.5-9.9-11.2 0 0-1.6 5.1-1.4 6.7 0 0 6.1 4 6.2 8.1 0 0-5.6-7.1-6.5-6.7 0 0-.3 7.2 1.4 11 0 0-3-5.4-2.5-11a12 12 0 0 0-3.6 5.9s-1.7-4 3.7-7.6c0 0 .5-5.6 1.1-6.3 0 0-5.8 2.8-8.2 6.3 0 0 .9-5.2 8.7-7.7l2-5.5s-7.8 3.3-10.3 6.3c0 0 1.8-5.2 11-7.7l2.7-5s-7 2.3-10.4 5c0 0 2.6-4.4 11.2-6.4l2.2-3.2s-5 1.8-6.5 2.5-1.7.3-1.7.3a18.3 18.3 0 0 1 9.1-4.1s5-6.3 4.7-6.6z" fill="#4285f4"/><ellipse cx="16.1" cy="633.5" rx="15.2" ry="2.6" fill="#4285f4" opacity=".1"/><path d="M22.9 607.3S1.7 618.2 12.7 631a4 4 0 0 0 4 2.6s-.6-1.1 1.7-2a10.8 10.8 0 0 0 2.2-1.3 5.3 5.3 0 0 0 2-2.7s4.4-5.8 1-16.5c0 0 .5-3 0-3.5l-2.5 3.5s2.7 1.8 3 4.4c0 0-2.8-4.4-3.4-3.9l-1.2 2s4.6 3 5 7.1c0 0-2.7-5.6-5.5-6.5l-1.6 3s5 3 5.6 7.6c0 0-2.9-5.9-5.9-7l-1.1 3s4.8 3 5.3 6.9c0 0-4.1-6.4-5.6-6.2a15.7 15.7 0 0 0-.8 3.7s3.5 2.3 3.5 4.5c0 0-3.1-4-3.6-3.7 0 0-.2 4 .8 6.1a12.2 12.2 0 0 1-1.4-6 6.7 6.7 0 0 0-2 3.2s-1-2.2 2-4.3c0 0 .3-3 .7-3.5 0 0-3.3 1.6-4.7 3.6 0 0 .6-3 5-4.4l1-3s-4.3 1.8-5.7 3.5c0 0 1-3 6.1-4.3l1.5-2.8a25 25 0 0 0-5.8 2.8s1.5-2.5 6.3-3.6l1.2-1.8-3.6 1.4c-.8.4-1 .2-1 .2a10.3 10.3 0 0 1 5.1-2.3s2.8-3.4 2.6-3.6zM901.2 98.1S873.7 75.3 924 38.6c0 0 24.9 47.7-8.5 63.8 0 0 .7-23.5-2.4-23.5s-11.8 19.2-11.8 19.2zM859.2 121.3s-48.6 4.5-35.5-79.3c0 0 70 22 53.3 69.7 0 0-22-23.3-25-20.2s7.2 29.8 7.2 29.8zM628.5 228.5s-48 8.4-41.8-76.2c0 0 71.6 16.3 58.8 65.2 0 0-23.9-21.4-26.5-18.2s9.5 29.2 9.5 29.2zM989 118s46.2 15.5 52.8-69c0 0-73.1 5.2-68 55.5 0 0 26.9-17.6 29-14S989 118 989 118zM745.3 142.7s-46-16 .4-86.9c0 0 54.7 49 19.8 85.5 0 0-10.5-30.3-14.4-28.8s-5.8 30.2-5.8 30.2zM912.4 118s-2.7-26 42.2-19.6c0 0-11.3 37.6-37 29 0 0 12.4-12 10.8-13.5s-16 4-16 4zM867 171.7s-2.8-26 42.1-19.5c0 0-11.3 37.5-36.9 29 0 0 12.3-12 10.7-13.5s-16 4-16 4zM962 183.1s-19.6-17 17.6-43c0 0 17.4 35.1-7.2 46.4 0 0 .8-17.2-1.4-17.2s-9 13.8-9 13.8zM882.7 330s24.3-9.4 29.6 35.7c0 0-39.2-1.3-37.4-28.3 0 0 14.7 8.9 15.8 6.9s-8-14.4-8-14.4zM884.6 284.3s-19.7-17 17.5-43c0 0 17.4 35.2-7.2 46.4 0 0 .8-17.1-1.4-17.2s-9 13.8-9 13.8zM733.1 235.8s-23.6 11-32.1-33.5c0 0 39.2-1.5 39.4 25.5 0 0-15.3-7.8-16.3-5.7s9 13.7 9 13.7zM676 183s-23.7 11-32.2-33.6c0 0 39.2-1.5 39.4 25.5 0 0-15.3-7.8-16.2-5.7s9 13.7 9 13.7zM755.5 305.7s-26 1-16.6-43.4c0 0 36.7 13.8 26.4 38.8 0 0-11-13.1-12.8-11.6s3 16.2 3 16.2zM750.9 337.2s4.6 25.6-40.6 22.5c0 0 8.5-38.3 34.7-31.6 0 0-11.4 12.8-9.7 14.3s15.6-5.2 15.6-5.2zM690.2 317.3s-9.9 24.1-46.4-2.8c0 0 27.8-27.7 46.3-8 0 0-16.5 4.7-15.8 6.8s16 4 16 4zM895.5 222.7S868 200 918.2 163.3c0 0 24.9 47.6-8.5 63.7 0 0 .7-23.5-2.4-23.5s-11.8 19.2-11.8 19.2zM1009.1 175.7s-20-29.5 38.3-50.9c0 0 10.7 52.7-25.8 59 0 0 7.1-22.5 4.1-23.3s-16.6 15.2-16.6 15.2zM1006 268.6s-27.5-22.8 22.6-59.5c0 0 25 47.6-8.4 63.8 0 0 .6-23.5-2.5-23.5s-11.7 19.2-11.7 19.2zM956.9 313s10.9-34 63.6-1c0 0-35 40.7-62.3 15.8 0 0 22-8.2 20.9-11s-22.2-3.8-22.2-3.8zM1027.3 288.3s11-34 63.7-1.1c0 0-35 40.8-62.3 15.9 0 0 22-8.2 20.8-11s-22.2-3.8-22.2-3.8z" fill="#4285f4"/><path d="M801.4 159.5s-35.2-6.3-9.6-62.9c0 0 45.1 29.2 24 59.6 0 0-11-20.7-13.7-19.2s-.7 22.5-.7 22.5zM717.7 172.7s-35.3 5.2-29-56.6c0 0 52 13.3 41.7 48.9 0 0-17-16.2-19.1-13.9s6.4 21.6 6.4 21.6zM695.8 264.4s-35.3 5.2-29-56.6c0 0 52 13.3 41.7 48.9 0 0-17-16.2-19.1-13.9s6.4 21.6 6.4 21.6zM658.4 292.2s-30.5 18.6-49-40.7c0 0 53.2-8.1 57.6 28.7 0 0-22-8.3-23-5.3s14.4 17.3 14.4 17.3zM944.8 263.7s-27.5-22.8 22.7-59.4c0 0 24.9 47.6-8.5 63.7 0 0 .7-23.5-2.4-23.5s-11.8 19.2-11.8 19.2z" fill="#4285f4"/><path d="M749.7 602.4s65.5-2.7 72.4-131-61.3-150-61.3-150-21.7-12-31.2-12.5-41.7 2.5-41.7 2.5l35.3-6.8s-49.7-19-64.6-20.5l53.8 11.4s.8-29.8-12.1-39.6c0 0 11-.9 16.8 20.6a41 41 0 0 0 24.5 27.5c20 7.8 47.5 20 53.8 30.6 0 0 11.6 12.1 9.9-19.4s-10.1-58.6-13.2-59.3c0 0-23.7-25.3-57-26.8 0 0 19.5-7.8 52.3 16.7 0 0 2.8-12.4-9.6-27s-31.6-45.5-52.5-48.7c0 0 29.3-1.8 52.5 36 0 0 8.6 5.6 9.3-8.5s5.8-31.8 5.8-31.8 7.1 32.5-7.8 47.2c0 0 28.5 37 27.3 78.7 0 0 8.8 19 12-3.3 0 0 2-30.6 5.8-56.5a76.8 76.8 0 0 0-16.1-59.3c-6.4-7.8-10.7-15.5-8.3-19.5l33 39.4s27.8-64.3 48-78.2 22.8-17 22.8-17L877 135.6l41-14.4-41.1 19s-19 15.3-29.8 57.5-11.8 68.3-11.8 68.3 58.3-46.1 69.4-44.6l-37.8 28.5a90 90 0 0 0-35.4 65.6s73-18.6 90.6-22.2l33.3-34-25.2 32.3 52-.8 29.7-21.2s-23.4 19.7-21.2 21 36.6 2.7 36.6 2.7-87.3-.5-96.9 5.8-31 8.6-31 8.6l61.8 9.4-73.7-5.3s-55.8 10-58.8 27.5c0 0 11.4 29.6 19 41.4 6.2 9.7 18.9 41.3 21.4 69.1s6 70.4-3.5 96.4-13.1 40.9-8.3 48.7 9.3 18-6.3 20-84.3-1-84.3-1-21 4-17-11.4z" fill="#b77b7f"/><path d="M786.4 588.7a33 33 0 0 1 22.2-2.8c12.9 2.8 32.6 1.3 34.4 1M827.5 437.5s3.1 49.4-2.4 59.1zM839 496.6s-4 46.2-6.7 55.2 6.7-55.2 6.7-55.2zM843 383c2.8 1 15 25.7 12.5 33S843 383 843 383zM812.1 357.4c1.3.6 7 14.8 5.9 19s-5.9-19-5.9-19zM864.7 440.2a188.6 188.6 0 0 0-1.2 35.2 135.8 135.8 0 0 1-.4 26.8M712.5 273.4a11.5 11.5 0 0 1 2.4 7.3c0 2.6-.3 5.2 0 7.8s1.4 6 4 6.3M759.1 188a66.5 66.5 0 0 1 9.2 11.4 27.2 27.2 0 0 0 2.6 3.7 42.2 42.2 0 0 0 5 4 23.6 23.6 0 0 1 8 12.6M891 114.3a16.4 16.4 0 0 1-3.2 4.3c-1.1 1.1-2.4 2-3.5 3.2a26.5 26.5 0 0 0-2.2 3.3 89.5 89.5 0 0 1-9.4 11.8M830 187.3c2.1 1.3 2.7 4.3 2.7 6.8s-.5 5.3.4 7.6c.5 1.1 1.2 2 1.6 3.2a14.4 14.4 0 0 1 .8 5.9l-.2 7c-.2 2.8-.4 5.8-2.3 7.9" opacity=".1"/><path d="M848.2 259.7a29.6 29.6 0 0 0-5.6 3.9 10.1 10.1 0 0 0-3.3 5.9c-.1 1 0 2-.3 3a9.4 9.4 0 0 1-2 3.5 49.8 49.8 0 0 1-4.7 5.3" fill="none"/><path d="M831.7 325.6a35 35 0 0 1 4.6-3.2 19.3 19.3 0 0 1 4.7-2c2.5-.7 5.2-.6 7.8-.9s5.3-1 7-2.9M934.4 293.7c-3.1 0-6.3.2-9 1.6-1.4.7-2.6 1.8-4 2.5a12.1 12.1 0 0 1-5.8 1.5M891.8 306.4a1.7 1.7 0 0 1 2.2.5c.6.6.8 1.4 1.4 2 1.1 1.3 3 1.4 4.6 1.5M874.2 241.1l-3 1.6a52.1 52.1 0 0 0-8.7 5.3M840.5 270c-2-.5-3.6 1.6-4 3.6s0 4-.5 6a11 11 0 0 1-2.9 4.3M807.7 273.6c-1.7 5.3 2 11 1 16.5-.4 1.6-1.2 3.2-1.6 4.8-1 4.4.8 9 3.6 12.4" opacity=".1"/><path d="M516.4 806a47.3 47.3 0 0 0-8.5 2 3.5 3.5 0 0 1-.5.4 10.4 10.4 0 0 1-6.6.5s-9 1.1-14.2-3c-2-1.5-3.9-3.3-5.6-4.9a3.4 3.4 0 0 0-4.3-.3l-.9-.6c-2.2-1.7-6-5-7.6-9.4-.5-1.6-1.2-3-1.9-4.6-.9-2-2-4.6-1.8-6 .1-2.1-6-20.4-9.8-29A34 34 0 0 1 452 739a10.4 10.4 0 0 1 .2-3.3c.7-1.7 1-10.4-1.7-14.2l-7.5-20.6-10.7-32.1-.3-1a45.3 45.3 0 0 1-2.6-4 35.2 35.2 0 0 1-3-6.2l-.4-1.3c4.1-1.3 1-13 1-13s-2-3.3-1.6-13a136.6 136.6 0 0 0-.8-22.3l-.3-3.4a395 395 0 0 0 34.8 15.2c2.8 0 10 4.6 10 4.6s14.8 8.6 27.7 2.7-10.3-13.6-16.6-12.5-19.6-7-19.6-7l-24.1-14.3-10-6c3.8-8.6 7-24-.3-34.7l-2.8-3a118.3 118.3 0 0 0 2-24.6c0-7.5-.4-15-.3-22.5a21.9 21.9 0 0 0 8.9-23.7 13.2 13.2 0 0 0 3.4-3.1 13.6 13.6 0 0 0-.3-15.1 12.4 12.4 0 0 0-4.2-4.7 28.2 28.2 0 0 0-5.7-2.5 17.9 17.9 0 0 1 2 1l.5.3c-2-.8-4.2-1.4-6.1-2.3a25.7 25.7 0 0 1-2.5-1.4l2.9 1h-.4c-3.3-1.7-6.1-4.2-9.4-6a22 22 0 0 0-4.3-1.7l.6.2 1.7 1c-7.7-3.2-17-2-24.1 2.6a34.2 34.2 0 0 0-14.3 22.3c-1.1 6.1-1 12.5-3.2 18.3-4.5 11.7-18 18.2-22.5 30-2 5.2-2 11-2.1 16.7a186.8 186.8 0 0 1-16.9 71.3 21.3 21.3 0 0 1-5.3 7.8h-.8a9 9 0 0 1-2 1l1 .3-1 .3 1.8.3a10 10 0 0 1-1 .4c6.8 1.5 14-.3 19.9-3.8s10.6-8.7 14.6-14.2l1-1.4-.4.8c-.7 1.9-3.5 31.3-3.5 33.3s-.6 20.3-1.5 22.5-11.8 30.2 2.6 26.9c9.1-2.1 10.8-11 10.8-17.2l.7-.2 4.2-1.3v2.5a40.1 40.1 0 0 0-1.1 6c0 2.2-1.5 7-1.5 7l-.1.2a78.6 78.6 0 0 0-6.7 25.2l-5.6 14.6-6 10.5s-17 20.4-20 40.3L319 798.4s-2.3-2.8-2.7-1.7-1 6.8-2 7-1.3 4.2-1.3 4.2-5 6-5.6 9.7v.4a19.6 19.6 0 0 0-.3 3.2.7.7 0 0 0 0 .1V822.7l.1.6s.2 2.7 7.3 4.4 14.6 2.5 18.3 4.6S347 836 347 836l14-.7a5.2 5.2 0 0 0 3.4-9h-.1l-9.7-2.6-.8-.2s-5.3.7-6.8-3a13.3 13.3 0 0 1-6.6-12.5s1-11.4-1.7-10.3l-1 .4.1-1v-.3l.2-.8v-.3l.2-1 .4-1.2.1-.3.4-1 .2-.3.5-.8.2-.4a14 14 0 0 1 .8-1.2c5.2-7 14-23.2 14-23.2l8.2-16.6s4.5-9.6 8.4-11.4 10.5-8.8 12.7-14.5l16.6-37a6.8 6.8 0 0 1 .6 2.2s8.7 22.1 13.2 25.8a90 90 0 0 0 9 14.4 10.8 10.8 0 0 1 1.6 4.3c0 2 3.4 7.6 3.4 7.6v7.5s.6 18.7 13.3 33.5l6.4 10.8 12 18.1.4.7a7.8 7.8 0 0 1-1.9-.6l3.8 8.1a31 31 0 0 1 1.1 4.5c0 .8 3.1 8.5 3.1 8.5v1.6l.1.2.1.3.1.3.1.3a2.4 2.4 0 0 0 .2.3l.2.3.1.3a4.1 4.1 0 0 0 .4.4l.2.2.1.1.2.2h.2a6.4 6.4 0 0 0 .6.4l.1.1a4 4 0 0 0 .6.2l.2.1.9.2h1.3a11.4 11.4 0 0 0 1.1 0s16.3-5.4 18.8-6 15.2-5.9 15.2-5.9 14.3-8 14-13.4-1.8-6.7-5.1-6.4z" transform="translate(-41.3 -38)" fill="url(#b)"/><path d="M373.9 445a19.4 19.4 0 0 0-1.4 4c-.4 2-.2 3.9-.7 5.6-.8 2.6-3 4.5-4.8 6.6a23.4 23.4 0 0 0-5.5 15.5c0 3.3.8 6.5.4 9.8-.4 2.5-1.5 5-2 7.4a31.6 31.6 0 0 0-.7 7.2 69.8 69.8 0 0 0 4.4 24.2 2.2 2.2 0 0 0 .6 1 2.3 2.3 0 0 0 1.2.4l7.1 1a3 3 0 0 0 2-.1 3 3 0 0 0 1.1-1.5c5.3-11.6 6.2-24.8 6.1-37.6s-1-25.7.8-38.4c.6-4 1.4-8 1.7-12 .2-2.6-.9-8.6-4.6-5.5-2.9 2.4-4.3 9.1-5.7 12.5z" fill="#864d6c"/><path d="M382.4 432a11 11 0 0 1 0 2.2c-.2 4.1-1 8-1.6 12-1.9 12.7-.9 25.6-.8 38.4s-.8 26-6.1 37.7a3 3 0 0 1-1 1.4 3 3 0 0 1-2 .2l-7.3-1a2.3 2.3 0 0 1-1.1-.4l-.1-.1 1 2.7a2.4 2.4 0 0 0 .6 1 2.3 2.3 0 0 0 1 .4l7.3 1a3 3 0 0 0 2-.2 3 3 0 0 0 1-1.4c5.3-11.7 6.2-24.8 6-37.6s-1-25.8.9-38.4c.6-4 1.4-8 1.7-12 .2-1.7-.2-4.7-1.5-5.9z" opacity=".1"/><path d="M370 502a77.7 77.7 0 0 0 4.2 6.7l-20.7-8.5s-20.3-15-15.7-15.6c1.1-.2 2.7-2 4.5-4.7a158.1 158.1 0 0 0 9-16.9c2.6-5.1 4.4-9.2 4.4-9.2l18.5 8.5a94.5 94.5 0 0 0-5.1 9.3 56.2 56.2 0 0 0-4.2 11.2c-1.2 5.6 2.2 13.5 5.2 19.1zM329 621.8s-2.5 9.6-2.5 11.8-1.5 7-1.5 7-6.6 14.6-6.7 25.2l-5.4 14.5-5.8 10.4s-16.7 20.4-19.6 40.1L276 764.5l20.5 1.3a15.7 15.7 0 0 1 2.4-14.1c5.1-7 13.8-23.1 13.8-23.1l8-16.5s4.4-9.5 8.2-11.3 10.3-8.8 12.5-14.5l20.5-46.4 9.7-23.4z" fill="#ffc2c8"/><path d="M296.6 765.8l-20.5-1.3 1.5-4.4c1.7 2.7 13.5 3 13.5 3a24.4 24.4 0 0 1 4.9-3.5 15 15 0 0 0 .6 6.2z" opacity=".1"/><path d="M318.7 797.2l-13.7.8s-10.1-1.7-13.8-3.7-11-3-18-4.5-7-4.4-7-4.4a14.8 14.8 0 0 1-.1-5.4v-.3c.6-3.7 5.5-9.7 5.5-9.7s.4-4 1.3-4.2 1.6-5.9 2-7 2.6 1.7 2.6 1.7c1 3 13.7 3.2 13.7 3.2a22.5 22.5 0 0 1 5.7-3.8c2.7-1.1 1.6 10.2 1.6 10.2a13.3 13.3 0 0 0 6.5 12.5c1.5 3.6 6.7 2.9 6.7 2.9l.8.2 9.4 2.5a.8.8 0 0 1 .2.2 5.2 5.2 0 0 1-3.4 8.8z" fill="#ff8aa1"/><path d="M318.7 797.2l-13.7.8s-10.1-1.7-13.8-3.7-11-3-18-4.5-7-4.4-7-4.4l-.2-.6-.1-.9a19 19 0 0 1 .2-3.9l14.8 5.2s11 3.6 15.2 4.4l16.3 1c1.1 0 1-2.6 0-4.9l9.5 2.6a.8.8 0 0 1 .1.1 5.2 5.2 0 0 1-3.3 8.8z" fill="#e8f5ff"/><circle cx="286.7" cy="783.8" r=".9" fill="#e8f5ff"/><circle cx="290.5" cy="767" r=".9" fill="#e8f5ff"/><circle cx="292" cy="771.4" r=".9" fill="#e8f5ff"/><circle cx="294" cy="775.6" r=".9" fill="#e8f5ff"/><circle cx="296.7" cy="779.5" r=".9" fill="#e8f5ff"/><circle cx="299.7" cy="782.6" r=".9" fill="#e8f5ff"/><circle cx="303.4" cy="785.6" r=".9" fill="#e8f5ff"/><circle cx="307.6" cy="787.9" r=".9" fill="#e8f5ff"/><circle cx="291.1" cy="785.2" r=".9" fill="#e8f5ff"/><path d="M305 795.7c-4.3 0-11.4-2.2-13.1-3-1.5-.5-10.9-2.8-11-2.8l-9.5-2.8a40.4 40.4 0 0 1-5.5-2.3v-.9a43.2 43.2 0 0 0 5.7 2.5l9.5 2.8c.3 0 9.5 2.3 11 3s8.7 2.7 12.8 2.7h.2z" fill="#ff8aa1"/><path opacity=".1" d="M354.3 616l-.1.8-2.4 10.5-1.5 7-11.8-3.5-10.9-3.3v-7.8l26.7-3.7z"/><path fill="#e8f4ff" d="M354.3 615.3l-.1.7-2.4 10.6-1.5 7-11.8-3.5-10.9-3.3v-7.9l26.7-3.6z"/><path d="M374.2 462.3a94.5 94.5 0 0 0-5.1 9.3h-.3a21.9 21.9 0 0 1-17.4-8.6l4.3-9.2z" opacity=".1"/><circle cx="368.8" cy="448.2" r="22" fill="#ffc2c8"/><path d="M377.2 547.2l15.4 9.3 23.6 14.3s13 8 19.2 7 29 6.6 16.3 12.4-27-2.7-27-2.7-7.2-4.6-10-4.6-37.5-16.7-37.5-16.7zM432.9 763.4v10l-14.9 3-2.1-3.3-11.6-18-6.3-10.8c-12.5-14.7-13-33.3-13-33.3v-7.4s-3.3-5.6-3.3-7.6a10.8 10.8 0 0 0-1.7-4.2l-1.5-3.2a90.4 90.4 0 0 0-7.3-11.2c-4.4-3.6-12.9-25.6-12.9-25.6 0-2.7-2.9-6.5-5.3-9.3-1.7-2.1-3.3-3.6-3.3-3.6l28.9-9 9.6.7.3 1 10.5 32 7.3 20.5c2.8 3.8 2.4 12.4 1.6 14.1a10.4 10.4 0 0 0-.1 3.3 34 34 0 0 0 2.7 12c3.7 8.6 9.8 26.8 9.6 28.8 0 1.5 1 4 1.8 6 .7 1.6 1.4 3 1.9 4.6a21.6 21.6 0 0 0 9 10.5z" fill="#ffc2c8"/><path d="M388.5 631.6a25.5 25.5 0 0 1-10.6 2.7c-4 0-17.3 5.1-24.8 8.2-1.8-2.1-3.4-3.6-3.4-3.6l28.9-9 9.6.7z" opacity=".1"/><path d="M388.2 630.6a26 26 0 0 1-11 3c-5.7 0-30.2 10.3-30.2 10.3l-3-4.8-5.5-9-3.1-5.1-2.7-4.4S343 618 354 616c13.3-2.4 27.7-4.3 27.6-.7a15.4 15.4 0 0 0 1 5.3 35 35 0 0 0 3 6.2 43.8 43.8 0 0 0 2.5 3.8z" fill="#e8f4ff"/><path d="M388.2 630.6a26 26 0 0 1-11 3c-5.7 0-30.2 10.3-30.2 10.3l-3-4.8 28.4-13a131.6 131.6 0 0 0 13.2.7 43.8 43.8 0 0 0 2.6 3.8z" fill="#fff" opacity=".5"/><path d="M432.9 763.4v10l-14.9 3-2.1-3.3a23.5 23.5 0 0 0 3.4.2c4 0 9.1-5.1 9.1-5.1.8-.4 1.3-2 1.7-4a3.2 3.2 0 0 1 1.2-2l1.6 1.2z" opacity=".1"/><path d="M476.1 774.5c.3 5.4-13.7 13.4-13.7 13.4s-12.4 5.3-14.9 5.9-18.4 5.9-18.4 5.9c-7.2.7-6.8-5.6-6.8-5.6s-3-7.6-3-8.4a31.1 31.1 0 0 0-1.1-4.4l-3.7-8s1.5.7 5.5.8 9.1-5.2 9.1-5.2c.8-.4 1.4-2 1.7-4a3.3 3.3 0 0 1 5.5-1.7c1.7 1.6 3.6 3.4 5.5 4.9 5 4 13.9 3 13.9 3a10 10 0 0 0 6.5-.6 3 3 0 0 0 .5-.3 46.8 46.8 0 0 1 8.3-2c3.2-.4 4.8 1 5.1 6.3z" fill="#ff8aa1"/><path d="M476.1 774.5c.3 5.4-13.7 13.4-13.7 13.4s-12.4 5.3-14.9 5.9-18.4 5.9-18.4 5.9c-2.5.2-4-.3-5-1.2a4.2 4.2 0 0 1-.8-.8 6.1 6.1 0 0 1-1-3.6 49.5 49.5 0 0 0 8-1.6s21.2-5.8 24-8c0 0 10.2-4.6 10.7-6.8 0 0-3-4.5-2.9-7.2a3 3 0 0 0 .6-.3 46.8 46.8 0 0 1 8.3-2c3.2-.4 4.8 1 5.1 6.3z" fill="#e8f5ff"/><path d="M461.3 786.4c-2 2.5-12.6 5.6-13.8 5.8s-9.1 2.9-9.2 2.9l-7.6 2.3a12.7 12.7 0 0 1-5.7 1.1h-1a4.2 4.2 0 0 1-.7-.8c1.8.2 4.9.2 7-1l7.8-2.3 9.2-3c1.6-.2 11.7-3.3 13.4-5.5z" fill="#ff8aa1"/><path d="M382.7 620.6a1.6 1.6 0 0 1-.4.2c-4 1.2-19 1.6-19 1.6a62 62 0 0 1-11.4 4.2c-3.6.8-7.1 1-9-.5-1.5-1.3-4.3-1.5-7.4-1.1a50 50 0 0 0-7.8 1.6v-7.7l26.7-3.6-.1.7c13.2-2.4 27.7-4.3 27.6-.7a15.4 15.4 0 0 0 .8 5.3zM374.2 508.7l-20.7-8.5s-20.3-15-15.7-15.7c1.1-.1 2.7-2 4.5-4.6a30.9 30.9 0 0 1 14.4 9.2 183 183 0 0 0 13.4 12.8 77.7 77.7 0 0 0 4.1 6.8z" opacity=".1"/><path d="M383.2 606.3s3.2 11.7-.9 13-19 1.6-19 1.6-15.6 7.7-20.6 3.7c-3.5-2.9-13.6-.1-19.2 1.7l-4 1.4s-4-20.3 2.6-32-2-40-2.4-42.8v-7c0-9.5.7-24.8 1.8-26.9a50.4 50.4 0 0 0 2.8-7.9s.9-7.3 2.3-8.4 2-4.6 2-4.6 1.9-7.7 3.7-9.7 2.6-8.2 2.6-8.2a12.8 12.8 0 0 1 6.3.2 30.7 30.7 0 0 1 15.5 9.4c5 5.6 14.2 13.5 14.2 13.5l11.6 12.7c7.7 11.6 3.5 28.2-.5 36.3-2 4-1.8 12-1 18.8a139.8 139.8 0 0 1 .8 22.2c-.5 9.7 1.4 13 1.4 13z" fill="#ffe577"/><path d="M351 511l-2 12v.1s-13.2 28.6-15.4 32.1-4.4 12.4-4.4 12.4-.7 16-2.1 19-3.2 22.4-3.2 22.4l-.9 12.8a32.4 32.4 0 0 1 .5 4.5l-3.9 1.3s-4-20.3 2.5-32-2-40-2.4-42.8v-7l2.6-10 3.3-16.5 1.2-2.3 4.3-7.8 14-4.6z" opacity=".1"/><path d="M350.3 509.6l-2 12s-13.2 28.6-15.4 32.1-4.4 12.4-4.4 12.4-.7 16-2.2 19-3 22.3-3 22.3l-1 12.9s4 20-10 23.2-3.6-24.4-2.7-26.6 1.5-20.3 1.5-22.3 2.7-31.3 3.5-33.1a70.1 70.1 0 0 0 1.8-7.7l5.1-19.4 3.3-16.5 1.3-2.3 4.2-7.8 14.1-4.6z" fill="#ffc2c8"/><path d="M350.3 509.6l-2 12c-.4-20.7-23.4-2.3-23.4-2.3l1.2-3.8 4.2-7.7 14.1-4.6z" opacity=".1"/><path d="M343.2 484.7s-10 4.4-11.4 10.6-7 22.6-7 22.6 24.2-19.3 23.4 3.8a13.1 13.1 0 0 0 3.2-8c.3-5.3 5.4-16.7 1.1-21.4a39.7 39.7 0 0 0-9.3-7.6z" fill="#ffe577"/><path d="M393.4 439.6c4-5.8 2.3-14.7-3.6-18.5-2.8-1.8-6.2-2.5-9.1-4-3.3-1.6-6-4.1-9.3-5.9-7.9-4.3-18-3.2-25.6 1.7s-12.3 13.4-14 22.2c-1 6-.9 12.4-3 18.1-4.5 11.7-17.7 18.2-22.1 29.8-2 5.3-2 11-2.1 16.7a188.2 188.2 0 0 1-16.6 71c-1.7 3.7-3.9 7.8-7.8 9.2 6.6 1.5 13.6-.3 19.4-3.8s10.4-8.6 14.3-14.1a90.6 90.6 0 0 0 16.7-56.9c-.3-4.4-.7-9.3 2-13s7.3-4.6 11-7.1c8.5-6.1 8.3-18.6 11.5-28.7a11.4 11.4 0 0 1 2.6-4.8c9.5-9.2 27.8-1.5 35.7-12z" opacity=".1"/><path d="M392.7 438.8c4-5.7 2.3-14.7-3.6-18.5-2.8-1.8-6.2-2.5-9.1-4-3.3-1.5-6-4-9.3-5.8-7.8-4.3-18-3.3-25.5 1.7s-12.4 13.3-14 22.2c-1.2 6-1 12.3-3.2 18-4.4 11.7-17.6 18.2-22 29.9-2 5.2-2 11-2 16.6a188 188 0 0 1-16.6 71c-1.7 3.8-4 8-7.9 9.3 6.6 1.5 13.7-.3 19.5-3.8s10.4-8.6 14.3-14.1a90.6 90.6 0 0 0 16.6-56.8c-.2-4.5-.6-9.4 2-13s7.4-4.6 11-7.2c8.6-6.1 8.4-18.6 11.5-28.7a11.2 11.2 0 0 1 2.6-4.8c9.4-9.2 27.7-1.5 35.7-12z" fill="#864d6c"/><circle cx="430.9" cy="772.5" r=".9" fill="#e8f5ff"/><circle cx="435.1" cy="775" r=".9" fill="#e8f5ff"/><circle cx="439.5" cy="776.8" r=".9" fill="#e8f5ff"/><circle cx="444.2" cy="777.6" r=".9" fill="#e8f5ff"/><circle cx="448.9" cy="778.2" r=".9" fill="#e8f5ff"/><circle cx="453.7" cy="778.2" r=".9" fill="#e8f5ff"/><circle cx="458.6" cy="777.6" r=".9" fill="#e8f5ff"/><g opacity=".1"><path d="M367 408.5c3.3 1.8 6 4.3 9.3 6a37.8 37.8 0 0 0 4 1.6l-.4-.2c-3.2-1.6-6-4.1-9.2-5.9a21.9 21.9 0 0 0-4.2-1.7zM389 419.9a27.5 27.5 0 0 0-5.5-2.5 17.3 17.3 0 0 1 1.9 1 13.7 13.7 0 0 1 3.6 18.4c-8 10.5-26.2 2.8-35.7 12a11.2 11.2 0 0 0-2.6 4.8c-3.2 10-3 22.6-11.6 28.7-3.6 2.5-8.3 3.6-11 7.2s-2.1 8.5-2 13a90.6 90.6 0 0 1-16.6 56.8c-3.9 5.5-8.5 10.6-14.3 14.1a29 29 0 0 1-13.8 4.3 8.6 8.6 0 0 1-2 1c6.6 1.5 13.7-.3 19.5-3.8s10.4-8.6 14.3-14.1a90.6 90.6 0 0 0 16.7-56.9c-.3-4.4-.7-9.4 2-13s7.3-4.6 10.9-7.1c8.6-6.1 8.4-18.6 11.5-28.7a11.2 11.2 0 0 1 2.6-4.8c9.5-9.2 27.8-1.5 35.8-12 4-5.7 2.2-14.7-3.7-18.5z"/></g><path d="M362.4 605.9s14.6-1.5 17.4-1.3-17.4 1.3-17.4 1.3zM366.1 609.5s8.8-1.2 12.3 0-12.3 0-12.3 0zM367.4 613.3s10.8 1 12.7.4M360.4 539.5s11 4.9 12 7.7 7.7 4.5 7.7 4.5" opacity=".1"/><path d="M352 438.8s-5-6.5-7.3-6.7c0 0 .5 1.8-.3 2.7a15 15 0 0 1-2.6 3c-1 .7-1.5 1.3-.8 2.6s1.6 3 3.3 2.6 6.2-3 7-3-4.9-2.8-5.7-2.7c0 0 2.5-.7 6.1 2zM348.2 432.4a4.3 4.3 0 0 1 1.5-3.3 1.8 1.8 0 0 1 1.5-.5 7.8 7.8 0 0 1 2.7 1.4s3.2 1.7 4.8 0v.7a5.5 5.5 0 0 1-.5 2.2c-.8 2-2.6 5.8-3.5 6.3l-.8-.3s1-5.4 0-6.8l-.4 6.7h-.5l-4.2-4.8a2.3 2.3 0 0 1-.6-1.6zM360 433.7a4.3 4.3 0 0 1 3.5.6 1.9 1.9 0 0 1 1 1.4 7.9 7.9 0 0 1-.7 3s-1 3.5 1 4.6l-.6.2a5.4 5.4 0 0 1-2.3 0c-2-.4-6.2-1.3-7-2l.2-.9s5.5-.2 6.6-1.6l-6.6 1.2-.1-.4 3.7-5.3a2.3 2.3 0 0 1 1.4-.8zM362.2 445a4.4 4.4 0 0 1 .6 3.5 1.8 1.8 0 0 1-1 1.3 7.8 7.8 0 0 1-3 .3s-3.6.3-4 2.6l-.4-.5a5.3 5.3 0 0 1-.8-2.1c-.4-2.1-1-6.3-.5-7.3l.8-.1s2.1 5.1 3.8 5.7l-3.4-5.8.4-.3 6.2 1.8a2.3 2.3 0 0 1 1.3 1zM351.8 450.5a4.4 4.4 0 0 1-3 1.6 1.8 1.8 0 0 1-1.7-.5 7.7 7.7 0 0 1-1.2-2.8s-1.4-3.4-3.7-3l.4-.6a5.5 5.5 0 0 1 1.8-1.4c1.9-1 5.7-2.8 6.7-2.7l.4.8s-4.2 3.5-4.2 5.3l4.5-5 .3.3.2 6.5a2.3 2.3 0 0 1-.5 1.5z" fill="#4285f4"/><path d="M351.8 440.4l.7-1a.3.3 0 0 1 .3 0l1.4.5a.3.3 0 0 1 .2.2v1.3a.3.3 0 0 1-.1.2l-1.3.5a.3.3 0 0 1-.3 0l-1-1.4a.3.3 0 0 1 0-.3z" fill="#444053"/><path d="M743 366.4l-11.3 24s-1.7 4.5-2.8 5.3-5.8 15-5.8 15l-12 18.7-.9 1.3-4.8-1.3-3.3-12.5.2-3.6v-.4s7.5-7.8 9.2-8.4c0 0 1.3.1 3.8-6s4.7-7.3 4.7-7.3l1.3-4.4 14-22.3s11.7-16.9 15-9.4-7.4 11.3-7.4 11.3z" fill="#ffd2c6"/><path d="M606.6 391.6a16.5 16.5 0 0 0-1.3 4l-.3 1c-.8 4-1.3 9-1.6 12 0 1.5-.2 2.4-.2 2.4s-28.3-1.9-23.4-6.6a10.5 10.5 0 0 0 2.6-4.7l.4-1.6a26.3 26.3 0 0 0 .4-3.6v-.9a37.2 37.2 0 0 0-.2-5.8s9.2-.1 16.1.7c4.7.5 8.4 1.4 7.5 3z" fill="#d38884"/><path d="M696.1 536.6a2.6 2.6 0 0 1-.4 1.2c-1.3 1.9-8.6 40.6-8.6 40.6.6 2.7-1.1 7.9-2.2 10.3s-3.4 14.7-3.4 14.7-.6 26.5-2.1 30.7.5 13 .5 13a20 20 0 0 0 4.8 12.1 6.3 6.3 0 0 0 1.6 2l.4.3a19 19 0 0 0 6.6 2.8h.3l1.5.4.6 3.2-6.3 1.3-12 .9s-14 1-10.9-5.3a10.5 10.5 0 0 0 .6-1.3l.3-1c2-6 .7-13.3.7-13.3l-2.8-21.5c-4.5-19.9 3.6-42 3.6-42s-.7-1.9.8-6.4 0-14.4 0-14.4-.8-12.7-1.9-19a37.5 37.5 0 0 1-.4-8 38.9 38.9 0 0 1 .5-4.6l27-3.6s1.5 4.4 1.2 7z" fill="#ffd2c6"/><path d="M695.7 668l-6.3 1.2-12 .9s-14 1-10.9-5.2a10.5 10.5 0 0 0 .6-1.4l.3-1a22 22 0 0 1 7.2 1.5c4 1.6 7-2.5 7-2.5l2-3.7.3-.5.8 1a6.5 6.5 0 0 0 2 2.3l-.4.7-1.9 4 5.8.8a2.6 2.6 0 0 0 3.1-1.7h.2c1 .3 1.6.3 1.6.3z" opacity=".1"/><path d="M701.5 670.8c-.4 2.2-13.7 2.8-13.7 2.8s-7.3-.7-9.4 1-8.1 1.3-8.4 1.3-3.4 0-4.7-5.8 1.7-6.6 1.8-6.7a21.7 21.7 0 0 1 7.5 1.5c4 1.6 7-2.5 7-2.5l2.2-4.3.8 1.1a6.5 6.5 0 0 0 2 2.3l-2.2 4.7 5.7.8a2.8 2.8 0 0 0 3.4-2.6 3 3 0 0 0 0-.4l4.6 1.3a4.8 4.8 0 0 1 3.4 5.5z" fill="#626696"/><path d="M726.4 564.9c-.3 1.9-.6 6.8-.6 6.8a39 39 0 0 1-1.7 13.9l-1.4 5.5c.6 7.2-4 24.6-4 24.6s-3 16-4.6 23a19.2 19.2 0 0 0 .8 11.7l.2.3a2.7 2.7 0 0 0 0 .4l.2.5a8.3 8.3 0 0 0 1.6 2.7 7.8 7.8 0 0 0 .8.8 17.1 17.1 0 0 0 5 3.1l.8.3a21 21 0 0 0 2.5.8l.3.1-.6 3.7-8.4-2.1-11.2-3.6-5.5-3.2.1-.9.2-1c.9-4.9 3-18.5 2-28.6a99.5 99.5 0 0 1 5-33.9 20.6 20.6 0 0 0 1-7.3c-2-3-2.5-15-2.5-15s-3.8-7.7-7-16a41.7 41.7 0 0 1-2.2-8.3 29 29 0 0 1-.5-6s25.5-23.3 28.3-.8c0 .8.2 1.5.3 2.2 2.6 20.7 1.4 24.5 1.1 26.3z" fill="#ffd2c6"/><path d="M726.4 659.5l-.6 3.7-8.4-2.1-11.2-3.7-5.5-3.1.2-1 .1-.9h.8a10.4 10.4 0 0 1 4.8.6c1.8.6 4.2 1.4 4.7 1.1a6 6 0 0 1 2.7-.5l1.1-2.5.2-.4a8.3 8.3 0 0 0 1.6 2.6 8.7 8.7 0 0 0 .9 1v.9l-.1 1.2a16.5 16.5 0 0 0 4 1.9 2.4 2.4 0 0 0 1.1 0l.8.3a21 21 0 0 0 2.5.8z" opacity=".1"/><path d="M722.3 667.4c-2.4-.6-8-1.7-9-.9s-8.7 0-8.7 0a4.8 4.8 0 0 1-4-2.4c-1.6-2.5-.3-10.7-.3-10.7h.6l1-.1a10.4 10.4 0 0 1 4.8.6c1.8.7 4.2 1.5 4.7 1.2a5.8 5.8 0 0 1 2.7-.5l1.3-3a8.3 8.3 0 0 0 1.6 2.7 8.7 8.7 0 0 0 .9.9l-.2 2.2a16.5 16.5 0 0 0 4 1.8 1.6 1.6 0 0 0 2-.6 1.4 1.4 0 0 0 .1-.3l3.3 1.1c2.7-.2 5.3 1 6.5 4.6s-9 4-11.4 3.4z" fill="#626696"/><path d="M696.1 536.6l-1.4.4a21.3 21.3 0 0 1-3.5.8c-7.5 1-19.9.4-23.8.2a38.9 38.9 0 0 1 .4-4.7l27-3.6s1.6 4.4 1.3 7z" opacity=".1"/><path d="M719.7 530s-9.9 1.6-18 3.3c-2.7.6-5.2 1.2-7 1.8a20.3 20.3 0 0 1-3.5.8c-9 1.2-25 0-25 0-4.3-14.2 5.4-32 5.4-32-.2-1.5 2-5.9 2-5.9v-.1l1.4-5h36.9l.4 2 1 4.5L719 527z" fill="#626696"/><path d="M725.4 538.7h-.2l-4.3 2a88.5 88.5 0 0 1-23.6 2.6 29 29 0 0 1-.4-6s25.4-23.3 28.2-.8l.3 2.2z" opacity=".1"/><path d="M726 536.5l-.8.4-4.3 1.9a89.6 89.6 0 0 1-23.8 2.6h-1.3c-2.1 0-4.2-2-4.2-2.6l-.4-2.9-.3-1.8s-9.5-4.1-14.4-7.4c-3.6-2.5-2.7-20-2-28.8l.5-5 37.3 2.1 5.3.4 3 .6.8.2s2 15.6 3.2 17 .3 5.7.2 8.2a15.2 15.2 0 0 1-.4 3.2s1.6 4.4 1.2 6.8a13.7 13.7 0 0 0 .5 5z" fill="#626696"/><path d="M557.5 526.3c-9.6-.3-2.5-20.4-1.4-23.1s-1.6-9.3-1.6-9.3-3.3-19.2-3.3-20.4a51.3 51.3 0 0 0-1.1-7.8 12.9 12.9 0 0 1 1.3-7.6c1-1.7 1-8.7 1-8.7v-9l2.1-2.8 5.5 5.2 1.5 1.4 2.7 10.1-1 14.4-.5 14.1 3.4 19.4s1 24.4-8.6 24.1z" fill="#d38884"/><path opacity=".1" d="M560.5 445.2l-8.2-3.4v-1.4l2.2-2.8 5.5 5.2.5 2.4z"/><path d="M556.7 424.6a38 38 0 0 0-2.2 8 36.2 36.2 0 0 1-2.2 7.8l9.2 3.8z" fill="#4c4981"/><path d="M556.7 424.6a38 38 0 0 0-2.2 8 36.2 36.2 0 0 1-2.2 7.8l9.2 3.8z" opacity=".1"/><path d="M629.5 624.3l-.8 1.6-.8 5.5-2.4 3.7-6 1.3-2.5-.3a34.6 34.6 0 0 0-.7-4.4l-.3-1.2a33.1 33.1 0 0 0-4.1-9.5s-4.5-10.9-6-12.3-7.6-15.8-7-19.3c.3-2 0-8.3-.3-13.6l-.5-8 15-9 1.7 2.8 1 1.7v1a27.9 27.9 0 0 1-1.3 6.6s-1.1 8 0 9.5a173.4 173.4 0 0 1 5.5 30c.4 4 2.9 7.7 5.4 10.3l.5.5a35.4 35.4 0 0 0 3.6 3.1z" fill="#d38884"/><path d="M617 636.1l2.6.3 6-1.3 2.4-3.7.7-5.5.8-1.6v-.2a34.1 34.1 0 0 1-4-3.4l-.4-.4s.8 5.3-3.7 7.6l-5.3 2.6z" opacity=".1"/><path d="M630.6 625l-.9 2-.8 5.4-2.4 3.7-6 1.3-3.4-.4-.3-2.9c0-.7-.2-1.5-.4-2.3a170 170 0 0 0 6-3c4.5-2.3 3.6-7.5 3.6-7.5a33.6 33.6 0 0 0 3.1 2.8l1.5 1z" fill="#ceddf9"/><path d="M630.6 625l-.9 2-.8 5.4-2.4 3.7-6 1.3-3.4-.4-.3-2.9a11.3 11.3 0 0 1 2.2.3s8.1 1.8 8.5-4.7c.3-3.6 1-5 1.6-5.6l1.5 1z" opacity=".1"/><path d="M630 624.7s-2-.5-2.4 6-8.6 4.7-8.6 4.7-4-1-4 .6a15.5 15.5 0 0 0 1 4.5s.3 3.8 1 4.7.4 4.4.4 4.4.3 2.5 6.6 0c0 0 5.6-1.2 10.2-8.2.2-.2-.5-1 3.6-2.4s15.7-10.8 14.8-15.4a3.9 3.9 0 0 0-2.8-3.3 4.7 4.7 0 0 0-3.6.5 31 31 0 0 1-3.4 1.6 16.7 16.7 0 0 1-4.9 1.1 18 18 0 0 0-3.7.7c-1.5.4-3.2.8-4.2.5z" fill="#cc8294"/><path d="M583.9 580.3a11.4 11.4 0 0 0-2.3 2.7c-2.3 3.5-3.7 8.4-5.3 10.5-2 2.7-2.5 8-2.5 8-.6 3.6-8 22.3-10 25.6s-4.8 12.3-4.8 12.3c-1.7 2.2-1.6 5.3-1.5 6.9l.1.6V647.2L555 652l-8.7-1.2-4.5-3.1a15 15 0 0 0 1-1.9c2.4-5.3 4.2-15 4.2-15s2.4-11 2.2-13.5a102.4 102.4 0 0 1 .7-10.4s6.9-21 9-24.5a9.6 9.6 0 0 0 1.7-4.5 3.7 3.7 0 0 0 0-1l3-2.9s24.2 3.4 20.4 6.4z" fill="#d38884"/><path d="M557.7 646.2v1L555 652l-8.8-1.2-4.5-3.1a15 15 0 0 0 1-1.9c2.2-.6 7.2 1.2 7.2 1.2s5.5 1 7.8-.6z" opacity=".1"/><path d="M555.6 658.6l-8.9 2.2-8-6 .3-3.4a6 6 0 0 0 1.5-1.4 5.3 5.3 0 0 0 1.2-2.4c.5-2.5 8.2.2 8.2.2s5.6 1.1 7.8-.7a13.7 13.7 0 0 0 .4 5 3.6 3.6 0 0 0 1.3 1.8c2.3 1.6-3.8 4.7-3.8 4.7z" fill="#ceddf9"/><path d="M555.6 658.6l-8.9 2.2-8-6 .3-3.4a6 6 0 0 0 1.5-1.4 17.2 17.2 0 0 1 1.8 0c1.4.2 4.6 6 4.6 6 8 .5 10.4-2.1 11.2-4a3.6 3.6 0 0 0 1.3 2c2.3 1.5-3.8 4.6-3.8 4.6z" opacity=".1"/><path d="M546.9 657s-3.2-5.9-4.6-6a32.7 32.7 0 0 0-3.4 0s-3.6 8.4-5 9.2-3.2 4.7-3.2 4.7 9.4 9.1 18.5 7.4a18.8 18.8 0 0 1 8.3 2c4.3 2.3 21.8.6 24-3.2 1.6-3 2.2-5 .8-6.6a3.8 3.8 0 0 0-3.3-1.1c-2.2.3-7.2.2-11.5-5.1 0 0-8-7.3-8.7-7.3s.6 6.8-12 6z" fill="#cc8294"/><path d="M616 564.3c-.6.6-4.5 4.9-5.6 5.2a55 55 0 0 0-5.7 2.5s-2.4 3.2-4.3 3.3a7.5 7.5 0 0 0-1.7.5l-.5-8 15-9 1.7 2.8 1 2.5z" opacity=".1"/><path d="M561.3 503.2s-5.8 7.6 0 17.7 12 15.2 12 15.2l20 41.3s5.2-2.9 7-3 4.3-3.3 4.3-3.3a57.1 57.1 0 0 1 5.7-2.6c1.3-.3 5.7-5.2 5.7-5.2s-2.2-4.7-1.7-6-1.4-4.4-1.4-4.4a26.3 26.3 0 0 1-1.3-5c0-1.2-2-4.2-2-4.2s-2.1-3.2-2.1-4.9-3-8.5-3-8.5l-.8-30z" fill="#ceddf9"/><path d="M616 563.3s-4.4 4.9-5.6 5.2a55 55 0 0 0-5.7 2.5s-2.4 3.2-4.3 3.4a15.3 15.3 0 0 0-3.9 1.4l-3.2 1.6-20-41.3a43.6 43.6 0 0 1-4.8-5 68.7 68.7 0 0 1-7.2-10.2 17.1 17.1 0 0 1-2.2-12.3 14.3 14.3 0 0 1 2.2-5.4l14.2-1 28.2-2 .2 8.9.6 21.1a55.5 55.5 0 0 0 3 8.6c0 1.7 2 4.9 2 4.9s2.1 3 2.1 4.3a26.3 26.3 0 0 0 1.3 4.9s1.9 3.1 1.4 4.4 1.7 6 1.7 6zM583.9 580.3a11.4 11.4 0 0 0-2.3 2.7c-8.6.6-18.6-3.9-21.2-5.1a3.7 3.7 0 0 0 0-1l3-3s24.3 3.4 20.5 6.4z" opacity=".1"/><path d="M609.3 512.5l-1.8 6.4c-.5 1.9-1.4 11.2-1.4 11.2l-.6 2.6-9 43-2 9.4c-3.4 2-12.1-3.1-12.1-3.1-10.2 1-22.7-5.4-22.7-5.4s2.1-6.6 1.6-10 2.9-6 2.9-6c-.8-3 2-16.1 2-16.1s.7-5 3-6.2-.3-3.2-1-4.3c-.3-.5 0-1.8.3-2.9a22.1 22.1 0 0 1 .7-2.1c-6-6-7-15.5-7-20.7a34.3 34.3 0 0 1 .1-3.8l13.1-2.3 28.5-5 3 9 .7 2.2z" fill="#ceddf9"/><path d="M606.6 391.6a16.5 16.5 0 0 0-1.3 4l-.3 1c-2.7 1.8-4.4 1.9-8 1.9-1.2 0-1.9-2.4-3-2.6 0 0-1.7-6.2-2.2-1-3.3-.7-6.2 1.9-8.5-.4v-.9a37.2 37.2 0 0 0-.3-5.9s9.2 0 16.2.8c4.6.5 8.3 1.4 7.4 3z" opacity=".1"/><path d="M613 381a17.6 17.6 0 0 1-17.5 17.6 17.3 17.3 0 0 1-3.6-.4 17.6 17.6 0 1 1 21.2-17.3z" fill="#d38884"/><path d="M603.4 408.6c0 1.5-.2 2.4-.2 2.4s-28.3-1.9-23.4-6.6a10.5 10.5 0 0 0 2.6-4.7l12.3 2s3.5 2.7 6.2 5.2a10.5 10.5 0 0 0 2.5 1.7zM607.7 509.4a9.2 9.2 0 0 1-3.8-.3 7 7 0 0 1-1.5-.7c-2.3-1.4-10.2.3-10.2.3s-21.6 1.5-22.5 0c-.5-.8-4.3-.7-7.4-.4l-3.2.3a14.3 14.3 0 0 1 2.2-5.4l14.2-1 28.5-5 3 9 .7 3.2z" opacity=".1"/><path d="M594.7 402.6l-15.4-2.5a4.6 4.6 0 0 1-3 2.5c-2 .5-11.1 5.2-15.2 11l-4.2 5.6s-3.3 4.1-2.2 7.5 2.4 14.5 2.4 14.5l1.6 12.5s3 9 2 13 .5 20.6.5 20.6l-3.2 20.5s10.8-1.4 11.7 0 22.5 0 22.5 0 8-1.7 10.3-.3a8.5 8.5 0 0 0 5.2 1s-1.9-6.5-.8-10.1.8-10.3.8-10.3 1.6-9.6.8-11.4 1.7-8 1.7-8l8.4-44.2s-1-7.9-5.5-10.6-9.5-3.5-12.2-6-6.2-5.3-6.2-5.3z" fill="#4c4981"/><path d="M601.8 446.1v5.2l5 13.1 1.7 12.2s3.2 8.7 3.2 11.7 7.7 17.6 7.7 17.6 2 5 1 5.9-10.2 21.8 1.3 21.1 8-22.4 8-22.4L628 501s-2.3-23.7-2.3-25.5c0 0-2.8-10.1-3.1-12.3l-2.4-13.4-1.7-7.3z" fill="#d38884"/><path opacity=".1" d="M596.3 462.6l-17.2 9.8-5.3 8 7-7.2 15.5-10.6zM591.1 481.4s-7.8 5.1-11.5 5.1-12.2 8.8-12.2 8.8 12-7.8 13-7.6 10.7-6.3 10.7-6.3zM571 484.2s-7.3 6.6-5.4 7.3 11.7-7.3 11.7-7.3zM603.5 460.4s-5.6 7.7-4.1 7.6 6-4.5 6-4.5zM604.4 468s-6.2 7-6 8.8 6-8.8 6-8.8zM606 471.5s-4.2 7.4-2.4 9 2.3-9 2.3-9zM600.6 452.5s-3.1 5.2-.8 5.5 2.4 0 2.4 0zM601.4 433.4a54.8 54.8 0 0 1-3.1 9.3 44 44 0 0 1-1.3-4.7 32 32 0 0 1 4.4-4.6zM610.8 372.3a7.6 7.6 0 0 1-1.2 1.8 13.5 13.5 0 0 0-2.1 2.5c-.7 1.2-.5 2.7-.8 4.2s-1.1 3-2.5 3a5.7 5.7 0 0 1-2.1-.7 2.1 2.1 0 0 0-2 .1 2.3 2.3 0 0 0-.8 1.6 20.8 20.8 0 0 0-.2 3.7l.1 1.4c.2 1.6.5 3.3-.3 4.8a5.6 5.6 0 0 1-2.9 2.3 17.4 17.4 0 0 1-4 1.1 45.4 45.4 0 0 1-8.2.3 2 2 0 0 1-.7-.1 1 1 0 0 1-.3-.2 26.2 26.2 0 0 0 .5-4.5 17.6 17.6 0 1 1 27.5-21.3z"/><path d="M603.5 357.3c-1.7-.2-3.2.7-4.8 1-3.3.8-6.6-.7-10-.7a18.4 18.4 0 0 0-8.2 2.5 19.4 19.4 0 0 0-5.5 3.8 8.9 8.9 0 0 0-2.6 6c0 1.3.4 2.7-.1 3.9a12.5 12.5 0 0 1-1.2 1.8 5.4 5.4 0 0 0-.6 4.5 14.7 14.7 0 0 0 2.7 4c2.2 2.8 3.6 6.1 5.5 9a26.2 26.2 0 0 0 2.9 3.7 2 2 0 0 0 .6.5 2.1 2.1 0 0 0 .7.1c4.1.1 8.4.2 12.2-1.4a5.6 5.6 0 0 0 2.9-2.4c.7-1.4.4-3 .3-4.7a21.3 21.3 0 0 1 .1-5.1 2.4 2.4 0 0 1 .7-1.6 2.1 2.1 0 0 1 2 0 5.3 5.3 0 0 0 2.1.6c1.5 0 2.4-1.6 2.6-3s0-3 .8-4.2a13.4 13.4 0 0 1 2-2.5 10 10 0 0 0 1.9-8.9c-1-2.9-3.8-6.6-7-6.9z" fill="#1e1637"/><circle cx="686.1" cy="391.1" r="15.3" fill="#ffd2c6"/><path d="M678.6 397.5s1.1 14.5-1.9 17.8-10.6 9.6-10.6 9.6l2.3 9.9 13.4 1.5 15.7-16.7-3.6-4.4s-2.7-9.2-.4-13.8-14.9-3.9-14.9-3.9z" fill="#ffd2c6"/><path d="M711 429.4l-.8 1.2-4.8-1.3-3.3-12.4.2-3.6 1-1.4s5.3.1 5 4.9c-.2 4.1 2.2 11 2.7 12.6zM721.3 498s-3.7.9-8 1.4-9.4.9-11.4-.3c-3.4-2-22-1.5-27.4-1.2h-1l1.5-5.1h36.9l.4 2.2 5.2.3 3 .6.8 2.1z" opacity=".1"/><path d="M702.4 412.9s5.2 0 5 4.8 2.8 13 2.8 13l-1.2 2.7s-1.6 6.6-.3 8.3 6 1.6 3.3 15.3c0 0-.6 10.2.8 13.5s1.4 11.3 3.6 14.6 5 11 5 11-15.4 3.4-19.5 1-28.8-1.1-28.8-1.1.1-4.2 0-4.7a4 4 0 0 1 .6-3c.8-1 2.1-3 1.4-4.6s1.8-4.1.5-6.7-3-3.1-2.6-4.5-.5-3.3-1.5-4.5-7.3-13.7-7.3-13.7l-1-5.9s-8.3-6-8.2-8.9 3.1-6.8 3.1-6.8l8-7.8s4.4 4.8 8.7 3.1 13.4-9.6 13.4-9.6 3.3-1.8 3.6-3 2.2-.2 2.2-.2 3-1.6 3.6-1 3.2 1 3.2 1z" fill="#ffcde5"/><path d="M657.5 437.6l-2.5 2s-2.6 4.6-3.2 12.9a170.7 170.7 0 0 1-3.2 20l-5 9s-8.2 17.1-9.2 21.7-6 12.3-6 12.3-16.4 14.8-5 17.5 11.9-11.8 11.9-11.8 2.7-3 3.1-5 15-27.8 15-27.8 5.1-7 4-10.7c0 0 6.7-15.6 6.7-19.5a68.9 68.9 0 0 0-1.1-9.8l1-8.1z" fill="#ffd2c6"/><path d="M691.7 470.3s-11.6 6-13.8 6.4 9.8-1.3 9.8-1.3zM701.2 475s-15.4 5.2-22.2 4.3c0 0 16.8 3.2 22.2-4.3z" opacity=".1"/><path d="M702.1 476.7s-13.9 8.7-22 7.3c0 0 19 3.8 22 1.8l-8.5-2.4s9.5-5 8.5-6.7zM686.1 364.2c-4-.8-8.4-.3-11.6 2.2-2.4 1.9-4 4.8-6.7 6.2a38.3 38.3 0 0 1-4.3 1.5 12.5 12.5 0 0 0-7.7 13.4c.5 2.4 1.6 4.6 2.1 6.9 1 4.1.1 8.5-1 12.6a132.7 132.7 0 0 1-13.1 32.7 3.4 3.4 0 0 0-.7 2.2 3.1 3.1 0 0 0 .9 1.4c5.4 6.3 14.4 8.5 22.7 8.8 3.1 0 6.3 0 9-1.5a13.6 13.6 0 0 0 4.4-4 21.4 21.4 0 0 0 4.1-13.8c-.2-4-1.6-8-.6-11.8a3.2 3.2 0 0 1 .8-1.5c.9-1 2.4-.7 3.6-.8 3.5-.4 5.8-4.1 6.2-7.6s-.5-7-.5-10.5a21.9 21.9 0 0 1 4.1-12.9c1.2-1.6 2.7-3.1 3-5.1.5-2.6-1-4.4-2.2-6.4-2-3-2.9-6.6-5.8-9a16 16 0 0 0-6.7-3z" opacity=".1"/><path d="M685.2 363.3c-4-.8-8.5-.3-11.7 2.2-2.4 1.9-4 4.7-6.6 6.1a40.4 40.4 0 0 1-4.4 1.5 12.5 12.5 0 0 0-7.6 13.5c.4 2.3 1.5 4.5 2 6.8 1 4.2.2 8.5-.9 12.6a132.3 132.3 0 0 1-13.2 32.7 3.4 3.4 0 0 0-.6 2.2 3.1 3.1 0 0 0 .8 1.4c5.5 6.4 14.4 8.5 22.8 8.8 3 .1 6.3 0 9-1.5a13.8 13.8 0 0 0 4.4-4 21.4 21.4 0 0 0 4-13.8c-.2-4-1.5-8-.5-11.8a3.2 3.2 0 0 1 .7-1.5c1-1 2.4-.7 3.7-.8 3.5-.4 5.7-4.1 6.2-7.6s-.5-7-.5-10.5a22 22 0 0 1 4.1-12.9c1.2-1.6 2.6-3.1 3-5.1.5-2.5-1-4.4-2.2-6.4-2-3-2.9-6.6-5.9-9a16 16 0 0 0-6.6-3z" fill="#985c7e"/><path d="M620.4 432.3a20.1 20.1 0 0 0 0 6.5c-.2 1.8 0 11.4 0 11.4-5.2-1.6-18.5 1.6-18.5 1.6l-1.6-4.8a11.8 11.8 0 0 1-2-3.9 41.1 41.1 0 0 1-1.2-4.6 96.6 96.6 0 0 1-1.6-10c-.6-5 6.8-10.4 12.5-13.4s10.6 9.8 10.6 9.8 2.4 5 1.8 7.4z" opacity=".1"/><path d="M620.4 431.4a20.1 20.1 0 0 0 0 6.5c-.2 1.7 0 11.4 0 11.4-5.2-1.6-18.5 1.5-18.5 1.5l-1.6-4.7a11.7 11.7 0 0 1-2-3.9 41.1 41.1 0 0 1-1.2-4.7 96.6 96.6 0 0 1-1.6-9.9c-.6-5 6.8-10.4 12.5-13.5s10.6 9.8 10.6 9.8 2.4 5 1.8 7.5z" fill="#4c4981"/><path d="M680 511.6s3 14.2 8.2 18.1z" opacity=".1"/><path d="M610.4 364.3a10.6 10.6 0 0 0-1.2-2.6l.2.6a10 10 0 0 1-1.8 9 13.8 13.8 0 0 0-2.1 2.4c-.7 1.3-.6 2.8-.8 4.2s-1.1 3-2.5 3a5.3 5.3 0 0 1-2.1-.6 2.1 2.1 0 0 0-2.1 0 2.3 2.3 0 0 0-.7 1.6 21.3 21.3 0 0 0 0 5.2c0 1.6.4 3.3-.4 4.7a5.6 5.6 0 0 1-2.9 2.3c-3.8 1.7-8 1.6-12.2 1.5a2.2 2.2 0 0 1-.7-.1 1.8 1.8 0 0 1-.6-.5 26.8 26.8 0 0 1-2.9-3.6c-2-3-3.3-6.3-5.4-9.1l-1.8-2.3a.8.8 0 0 0 0 .1 14.4 14.4 0 0 0 2.7 4c2.1 2.8 3.5 6.2 5.5 9.1a26.2 26.2 0 0 0 2.8 3.6 2 2 0 0 0 .6.5 2.2 2.2 0 0 0 .7.1c4.2.1 8.4.2 12.2-1.4a5.6 5.6 0 0 0 3-2.3c.7-1.4.4-3.2.2-4.7a21.8 21.8 0 0 1 .1-5.2 2.4 2.4 0 0 1 .7-1.6 2.1 2.1 0 0 1 2.1 0 5.2 5.2 0 0 0 2 .6c1.5 0 2.4-1.6 2.6-3s.1-3 .8-4.2a13.4 13.4 0 0 1 2.1-2.5 10 10 0 0 0 1.9-8.9z" opacity=".2"/><g opacity=".1"><path d="M655.8 389.8l-.5-1.7.5 1.7zM699 377.4a4.7 4.7 0 0 1 0 1.3c-.4 2-1.9 3.6-3 5.2a22 22 0 0 0-4.1 12.9c0 3.5.9 7 .5 10.5s-2.7 7.1-6.2 7.5c-1.3.2-2.8 0-3.7.9a3.2 3.2 0 0 0-.7 1.4c-1 3.9.3 7.9.6 11.9a21.5 21.5 0 0 1-4.1 13.8 13.8 13.8 0 0 1-4.4 4c-2.7 1.4-6 1.6-9 1.5-8.2-.3-17-2.4-22.5-8.5a2.1 2.1 0 0 0-.1 1 3.1 3.1 0 0 0 .8 1.5c5.4 6.3 14.4 8.5 22.7 8.8 3.1.1 6.3 0 9-1.5a13.8 13.8 0 0 0 4.4-4 21.4 21.4 0 0 0 4.1-13.8c-.2-4-1.5-8-.5-11.9a3.2 3.2 0 0 1 .7-1.4c.9-1 2.4-.7 3.7-.9 3.4-.4 5.7-4 6.1-7.5s-.5-7-.5-10.5a22 22 0 0 1 4.2-13c1.1-1.5 2.6-3 3-5a5.9 5.9 0 0 0-1-4.2z"/></g></svg>