<svg data-name="Layer 1" xmlns="http://www.w3.org/2000/svg" width="1040.8" height="799.2"><defs><linearGradient id="a" x1="294.1" y1="842.7" x2="294.1" y2="213.7" gradientUnits="userSpaceOnUse"><stop offset="0" stop-color="gray" stop-opacity=".3"/><stop offset=".5" stop-color="gray" stop-opacity=".1"/><stop offset="1" stop-color="gray" stop-opacity=".1"/></linearGradient></defs><path d="M617.8 131.8c-64.7-2.7-126.3-27.4-185.2-54.4S315.4 20.4 252.3 6c-40.7-9.2-87.1-10.5-119.9 15.3C101 46 90.7 88.9 85.3 128.6c-4.2 29.9-6.6 61.3 4.7 89.3 7.8 19.4 21.7 35.7 31.4 54.3 33.4 64.8 9.8 144.6-26.5 207.8-17 29.6-36.7 58-49.9 89.5s-19.2 67.7-7.7 99.9c11.4 32 38.5 55.9 68 72.7 59.6 34.3 130 44 198.5 49.6 151.8 12.3 304.5 7 456.7 1.7 56.3-2 113-4 168.4-14.3 30.7-5.7 62.5-14.8 84.9-36.7a94.8 94.8 0 0 0 16.3-109.9c-31.8-58.5-120-73-142.3-136-12.2-34.5.4-73 18.2-105 38.2-68.9 102.3-129.2 105.7-207.9A148 148 0 0 0 935.6 50c-50-26.8-119.2-23.5-156 20.9-38 45.6-104.6 63.2-161.8 60.9z" fill="#4285f4" opacity=".1"/><path d="M505.5 312l-53.3 8.3-27.3 2.6-7.3.7s-13 2-14.2 0-26.4 0-26.4 0-15.2-18.2-51.3-8.6a26.7 26.7 0 0 1-12 3.7 1.6 1.6 0 0 1 0-.2c0-4.2-.4-18.6-13.1-26.4a28 28 0 0 0-10.3 3.1l-.3.2-.9.5-.1.1a34.9 34.9 0 0 0 .8-5v-1.9a6.6 6.6 0 0 0 3.6-2.5 4.5 4.5 0 0 0 .5-2.4v-.8a1.2 1.2 0 0 1 0-.2 58.6 58.6 0 0 0-1.3-8.8l4 2.6c.8.7 2 1.3 3.1 1a2.5 2.5 0 0 0 1.6-1.6c.7-2 .2-4.2 1.6-5.8l1.1-1a2.7 2.7 0 0 0 .6-1.9 6.7 6.7 0 0 0-.1-1.2v.1a7 7 0 0 1-.1-3 2.6 2.6 0 0 0 3-.8 4.9 4.9 0 0 0 .7-2.8c.1-1.7.2-3.5.1-5.2 0-4.1-.8-8.2-3.6-11.4.7-4.7-4.4-9.7-10-10.4-1.4-.1-3.1-.2-3.7-1.3a3.5 3.5 0 0 1-.3-1.5c-.2-1.8-1.4-3.4-2.5-4.9a7.8 7.8 0 0 0-1.7-1.7c-1.9-1.2-4.5-.9-6.8-.4q-6.4 1-12.6 2.4a12 12 0 0 1 0-6 10.8 10.8 0 0 0 .8-3.2 3 3 0 0 0-.1-1v.1a5 5 0 0 0-.2-.5 2.5 2.5 0 0 0-2-1.3 2.8 2.8 0 0 0-2.6 1.6 31 31 0 0 0-4.9 11.5 11.6 11.6 0 0 0-11-1.2 9.5 9.5 0 0 1-2.9 1 4.8 4.8 0 0 1-4.2-2.4c-1.1-1.7-1.6-3.8-3.8-4.9a3.5 3.5 0 0 0-3.2 0 2.2 2.2 0 0 0-1.1 1.3.8.8 0 0 0 0-.1 2.1 2.1 0 0 0 0 .4v.4c-.1 2 1.3 4.5-.3 6a5.7 5.7 0 0 1-2 1l-5.5 2a30.9 30.9 0 0 1-9.1 2.3c-2.9 0-5.8-.6-8.6-.5a3 3 0 0 1-.3-.2 14.7 14.7 0 0 0-2 .2 2 2 0 0 0 .3.2h-.2a10.4 10.4 0 0 0 5.4 3.2c1.3.3 2.6.4 3.9.8s2.4 1.2 2.7 2.3a5.2 5.2 0 0 1-.7 2.7v-.1a3 3 0 0 0-.2 1.1 2 2 0 0 0 0 .5 2.8 2.8 0 0 0 3.1 1.8l-6.4 4a8.3 8.3 0 0 0-1.3 1h-.2a1.9 1.9 0 0 0-.6 1.4 1.3 1.3 0 0 0 0 .6l2.2.6-5.7 7.8a9.2 9.2 0 0 0-.9 1.4 2.8 2.8 0 0 0-.3 1 2.2 2.2 0 0 0 0 .5 2 2 0 0 0 2.6 1.5 14.2 14.2 0 0 0-3 4.3l-.1.2a2.4 2.4 0 0 0-.2 1 1.1 1.1 0 0 0 .1.7 2.3 2.3 0 0 0 2 .7c3 0 5.8-2 6.3-4.5 1 1 0 2.2-1 3.3-3.5 4.1-7 8.3-9 13.1a17.6 17.6 0 0 0-1.1 5.2v-.1.4a12.8 12.8 0 0 0 2.9 9.1 16.6 16.6 0 0 1 2 2.7c1.2 2 .6 4.7 2.3 6.5a75.6 75.6 0 0 1 5-10.9 12 12 0 0 1-.3 2.8l-.1.6a4.3 4.3 0 0 0 0 .5 2.9 2.9 0 0 0 1.7 2.9c1.8.6 3.6-.7 4.8-2l.6 1.4a35.8 35.8 0 0 0 18.8 18.3l.2.3c-6.8 4-22.5 13.8-23.5 17.5-1.3 4.8-.8 17.3 8.6 19.8a19.6 19.6 0 0 0 6.2.7l-1.2 1.9a60.5 60.5 0 0 0-5.4 10.2c-2 6.1-19.7 13.6-19.7 13.6s-16.1 13-19.6 38c0 0-17.2 22.2-26.7 26.9s-26 33-26 33-16.3 11.5-19.8 22.7-12 13.9-12 13.9l2 1.1-1.2.8c-7.8 4.6-25 17.2-21.1 37 3.6 19 25.1.5 35.6-9.9l1-1a28.3 28.3 0 0 1-.8 3.2 39.7 39.7 0 0 1 8.3-9.3 32.4 32.4 0 0 0 8.5-10.3c1.5-3 4-6 8-7 8.5-2.1 52-35.5 61.5-52.9s29.5-24 29.5-24l9.1 28.7a26.8 26.8 0 0 1 .7 13.5c-2 9.8-4.5 28.7 1.6 43.3l.8-.7a629.8 629.8 0 0 1 3.5 17l1.4 8.8c1.3 10.5 4.8 34.6 7.6 37s19 52.6 19 52.6 14.3 32.8 12 47.4a20.7 20.7 0 0 0 .2 5.3 83.5 83.5 0 0 0 2.1 10.7l1 3.3.7 2.8c7 23.5 20.2 54.8 20.2 54.8l2.5 6.7 1.5 4.1c2.4 6.4 4.8 13.6 4.8 15.2 0 .4.5.8 1.4 1.2a96.4 96.4 0 0 0-6 11.7c-2.8 6.6-10.8 13.1-10.8 13.1s-9.5 2.7-9.5 11v6.3s20.2-.4 26.9 1.5 15.5-1.3 15.5-1.3l2-2.5s23 1 24.4-4.7c.5-1.7.4-5.3.1-9.5a122.7 122.7 0 0 0-2.3-15.5c1.5 0 2.6-.2 2.6-.2s10.5 6.8 11.6 13.5a13.8 13.8 0 0 0 6.6 9.6s11 5 32 2.7c11-1.1 13-6.7 12-11.7-1-4.6-4.4-8.6-6.1-8.3-3.5.7-17.5-19.5-17.5-19.5l-7.2-15c.7-8-1.2-11.8-3.8-13.4 1.8-16.8 2-39.4 2-39.4s1.6-27.3 0-51.7-1.6-72.3-7-88.4c-2.5-7.5-6.1-28.4-9.3-48.7l-.7-4.5-2-14.3.8-.5-1.7-14.8-.2-2 .2.1c5.7 5.2-2-23.8-2-23.8s-3.3-33.4-3.1-52.7a182 182 0 0 0-1.1-20.4c-.6-5.7.8-13.2 9.4-18.4a42.6 42.6 0 0 0 6.4-5c2.4-2.1 7.6-5 19-5.2 19-.7 38-10.6 38-10.6s21.9 1.3 32-11.7 35.5-16 35.5-16zM113.7 531.2l-2.8-4a29.3 29.3 0 0 1 2.8 4zm239.2 160.9A97.1 97.1 0 0 0 357 729l-1.6 41.6h-.1c-1.3-.2-2.6 4-3.6 9.7a44.1 44.1 0 0 0-2.9-6.7c-1.9-2.8-.3-18.2-.3-18.2s-8-12.7-8.6-15.5l-10.1-48s-.7-35.2-4.1-44.1-4.5-48-4.5-48 17.5 28.2 18.7 42.4l13.7 43.6s-.5 2.4-.8 6.4z" transform="translate(-79.6 -50.4)" fill="url(#a)"/><path d="M311.4 675.2s-.5 49.5-5.7 56.2-32.5.3-32.5.3l2-54.4a89.5 89.5 0 0 1-4-36.5c.3-4 .7-6.3.7-6.3l-13.2-43.2c-1.2-14.1-18-42-18-42s.8 38.6 4.2 47.4 4 43.8 4 43.8l9.8 47.5c.6 2.7 8.3 15.3 8.3 15.3s-1.5 15.3.3 18 9.5 24.3 7.6 28.3S240 748 240 745c0-1.6-2.4-8.8-4.6-15.1l-1.5-4-2.4-6.6S218.7 688.1 212 665l-.8-2.9-.8-3.2a86 86 0 0 1-2.1-10.6 21.3 21.3 0 0 1-.1-5.3c2.1-14.4-11.7-46.9-11.7-46.9s-15.6-49.6-18.3-52-6.2-26.4-7.4-36.8l-1.3-8.7-.7-3.5c-1.9-9.7-4.2-19.6-4.2-19.6l34.4-22.7 90.3-9.8a2574.2 2574.2 0 0 0 6.4 45.2c3 20 6.5 40.8 9 48.2 5.2 16 5.2 63.4 6.7 87.6s0 51.2 0 51.2z" fill="#63667e"/><path opacity=".1" d="M222.5 471.3l11.4 58h5.4l-10.8-60-6 2zM169.5 498.6l-.6-3.5c5.3-1 17.2-5.5 15.4-23.2h3.6s3.5 23.3-18.4 26.7zM295.8 488.2c-6.9 1.3-28.3 5-32.8 2.5-5.4-2.9-10.7-18.6-10.7-18.6l5-.8s-4.4 23.1 37.8 12.4l.7 4.5z"/><path d="M294 469.1c-6.3 3.6-20.8 5.4-37.7 6l-4.6.2c-27.4.9-59.4-.7-72.1-1.4l-5.7-.4 11.2-7.7 18.4-6.7 38.6-7.6 49.6-1.4.5 4.3z" fill="#33363d"/><path d="M256.3 475.2l-4.6.1c-2-8.2-8.1-21.3-8.1-21.3l5.2-.7z" fill="#63667e"/><path d="M47.7 492.2s-2.1 2.5-5.4 6c-10.1 10.2-30.9 28.5-34.4 9.7-3.7-19.6 12.9-32 20.4-36.7 2-1.3 3.5-2 3.5-2z" fill="#ffa2a2"/><path d="M233.3 271.8s-11.7-7.3-13.9-6.6 0 10.5 0 10.5a28.7 28.7 0 0 1-12.7 12.4 179.2 179.2 0 0 0-18.1 11 32.5 32.5 0 0 0-25 8.2 20 20 0 0 1-16.2 2.8c-9.1-2.6-9.6-15-8.3-19.7 1-3.7 16.1-13.3 22.6-17.3l3-1.7s29.4-1 36-13.6a24.5 24.5 0 0 1 8.9-9.4l.1-.1.9-.5.2-.2a26.4 26.4 0 0 1 10-3.1c14.4 9.2 12.5 27.3 12.5 27.3z" fill="#ced7e7"/><path d="M233.3 271.8s-11.7-7.3-13.9-6.6 0 10.5 0 10.5a28.7 28.7 0 0 1-12.7 12.4 179.2 179.2 0 0 0-18.1 11 32.5 32.5 0 0 0-25 8.2 20 20 0 0 1-16.2 2.8c-9.1-2.6-9.6-15-8.3-19.7 1-3.7 16.1-13.3 22.6-17.3l3-1.7s29.4-1 36-13.6a24.5 24.5 0 0 1 8.9-9.4l.1-.1.9-.5.2-.2a26.4 26.4 0 0 1 10-3.1c14.4 9.2 12.5 27.3 12.5 27.3zM292.2 454.4c-5.5-5.2-39.8 4.3-39.8 4.3s-23.7 6.8-41.7 7.9a68 68 0 0 1-7.3 0 43 43 0 0 0-22.1 6.4l-1.7 1-5.6-.4L185 466l18.4-6.7 38.7-7.6 49.5-1.4zM42.3 498.1c2.2-15.3-9.6-24.1-14-26.9 2-1.3 3.5-2 3.5-2l16 23s-2.2 2.5-5.5 6z" opacity=".1"/><path d="M421.7 290.2s-24.5 3-34.3 16-31 11.6-31 11.6-18.3 9.8-36.7 10.4c-10.9.3-16 3-18.3 5.3a41 41 0 0 1-6.1 4.8 18.1 18.1 0 0 0-9.1 18.2 188.3 188.3 0 0 1 1 20.3c-.2 19 3.1 52.1 3.1 52.1s7.4 28.8 1.8 23.6-39.8 4.3-39.8 4.3-23.6 6.8-41.6 7.9a68 68 0 0 1-7.4 0 43 43 0 0 0-22 6.4 89.8 89.8 0 0 0-16 11.4c-5.8-14.5-3.4-33.2-1.4-42.8a27.3 27.3 0 0 0-.7-13.5l-8.9-28.3s-19.3 6.5-28.5 23.7-51.1 50.2-59.4 52.4c-3.8 1-6.2 4-7.7 6.9a31.8 31.8 0 0 1-8.2 10.2 39 39 0 0 0-8 9.2c5.6-20.8-15-31-15-31s8.3-2.7 11.7-13.7 19-22.3 19-22.3 15.9-28.2 25-32.8 25.8-26.7 25.8-26.7c3.4-24.8 19-37.6 19-37.6s17.2-7.4 19-13.4c.7-2.1 2.8-6 5.3-10.2 2.3-4 5-8.1 7.1-11.4l3.9-5.8 27.5-.2h5l14.6-27.7s5.2-5.2 14.3 1a14.5 14.5 0 0 0 8.8 2.4 25.5 25.5 0 0 0 11.5-3.7c35-9.5 49.6 8.5 49.6 8.5s24.2-2 25.5 0 13.7 0 13.7 0l33.4-3.3 51.5-8.2z" fill="#ced7e7"/><path d="M220.8 281l-15.6 25.7s-42.6 31-36.5 6.8a40.4 40.4 0 0 0 1-12.5c0-1.6-.2-3.2-.4-4.8a79 79 0 0 0-5.9-19.4l-1-2.1-1.4-3a97.7 97.7 0 0 0-6.7-11.5s46.2-37.7 47.8-14.1a48.3 48.3 0 0 0 3.6 15.5l.3.8a48 48 0 0 0 11 15.5 32.6 32.6 0 0 0 3.8 3.1z" fill="#ffa2a2"/><path d="M159 305l7.1 21.3 29.3 4.8 16.8-18.5s9.7-13.8 10.3-14 2.1-13.5 2.1-13.5l1.8-7.5-11.3-3.8-16 17.3-6.5 4-7.2 1.8-24 7z" fill="#ced7e7"/><path d="M233.3 273.7s-8-.1-10 .6-3.9 3.3-3.9 3.3a28.6 28.6 0 0 1-12.7 12.4 179.2 179.2 0 0 0-18.1 10.9 32.5 32.5 0 0 0-25 8.3 20.4 20.4 0 0 1-11.4 3.4c2.4-4 5-8.1 7.2-11.4 9.8-1 30.8-4.9 30.8-4.9l.5-1.1c2-4 8.5-17.5 11-21.6l11.9-20.1-8.7 8 4.6-11.3h.2l.8-.6.3-.1a26.4 26.4 0 0 1 10-3.1c11 7 12.5 19 12.6 24.5a24.4 24.4 0 0 1 0 2.8zM161.7 271.3l2.3 5-.6.5-1-2.2-1.4-3 .7-.3z" opacity=".1"/><path d="M217 277.9a30.5 30.5 0 0 1-10.3 8.4 178.3 178.3 0 0 0-18.1 11 32.5 32.5 0 0 0-18.8 3.7l-.6-4.8 21-3.6s8.6-17.9 11.4-22.7l4.5-7.5a48 48 0 0 0 10.8 15.5z" opacity=".1"/><path d="M233.3 271.8s-8 0-10.1.6-3.8 3.3-3.8 3.3a28.7 28.7 0 0 1-12.7 12.4 179.2 179.2 0 0 0-18.1 11 32.5 32.5 0 0 0-25 8.2 20 20 0 0 1-16.2 2.8c-9.1-2.6-9.6-15-8.3-19.7 1-3.7 16.1-13.3 22.6-17.3l2.3 5a141.7 141.7 0 0 1-14.8 10c-9.8 5.9-4.8 12.2-4.8 12.2a50.5 50.5 0 0 1 10.6-.7c5 .3 35.2-5.2 35.2-5.2s8.6-17.9 11.4-22.7l12-20-8.7 8 4.6-11.3h.2l.8-.6.3-.1a26.4 26.4 0 0 1 10-3.1c14.4 9 12.5 27.2 12.5 27.2z" fill="#ced7e7"/><path d="M205.7 261.6a35 35 0 0 1-43.3 13 101.5 101.5 0 0 0-8.1-14.4s46.2-37.7 47.8-14.1a48.3 48.3 0 0 0 3.6 15.5z" opacity=".1"/><path d="M210.4 240.8v2.6a35 35 0 1 1 0-2.6z" fill="#ffa2a2"/><path d="M119.7 353.3s7.7 14.4 17.2 22.3 15 20.2 15 20.2-2.8-23.8-32.2-42.5z" opacity=".1"/><path d="M107.8 389.4s27-6.7 40.6 0zM98 429.6l29-10s-18.6 13.3-29 10zM47.7 468.8s12.6-.7 16.6 3.3c0 0-12.3 1-16.6-3.3zM340.8 275s-28.1 16.7-29.4 43.7zM374.8 300.3s-34.9 7-40.7 10.7-18.4 5.5-18.4 5.5 50.6-6.7 59.1-16.2zM272.4 448.1c-2.5 2.7-33.9 10.1-61.9 16.3a70.5 70.5 0 0 1-7.6.1 45 45 0 0 0-23 6.5l-13.9 3s-9.2-7.3 3.5-23.7 15-42.2 15-42.2l56.5-14.5s15.2 21 22.5 24.4 13.6 25.3 9 30.1z" opacity=".1"/><path d="M270.4 448.9c-2.5 2.5-32.7 9.8-59.7 15.8a68 68 0 0 1-7.4 0 43 43 0 0 0-22 6.4l-13.5 2.9s-8.9-7 3.4-23 14.4-41 14.4-41l54.5-14.2s14.7 20.4 21.7 23.7 13.1 24.6 8.6 29.3z" fill="#ced7e7"/><path d="M226.2 649.6l-15.8 9.3a86 86 0 0 1-2.1-10.6c2.3 2 17.8 1.3 17.8 1.3zM211.3 662.1c5.5-1 18.7-3.7 26-6.1a90.3 90.3 0 0 1-25.2 9l-.8-2.9zM242 653.6c-.7.7-2.4 1.5-4.7 2.3l4.6-2.3zM251.4 730.6c-4.5.4-11.7-.2-16-.7l-1.5-4c4.6.5 13.7 1.2 17.5.1 5.1-1.5 6.7 4 0 4.6zM291.3 649.2c-.8 0-12.7-1.4-20.3-1.5 0-2.6 0-5 .2-6.9l20 8.4z" opacity=".1"/><path d="M282.5 781c-1.4 5.6-23.7 4.6-23.7 4.6L257 788s-8.6 3.2-15 1.4-26-1.5-26-1.5v-6.3c0-8.2 9.2-10.9 9.2-10.9s7.7-6.4 10.4-12.9a97 97 0 0 1 5.8-11.7s-7.2-8.7 12.1-11c19-2.2 11.6 15 11.3 15.5.4-.3 7.5-6.7 11.4-4.7 3 1.5 5.5 15.4 6.3 25.5.4 4.3.4 7.9 0 9.5z" fill="#ced7e7"/><path d="M282.5 781c-1.4 5.6-23.7 4.6-23.7 4.6L257 788s-8.6 3.2-15 1.4-26-1.5-26-1.5v-6c11.8.6 35.4 1.4 40.7-1.4 0 0 6.3-1.6 7.8-2.7 1.2-.9 14.1-5 18-6.3.4 4.2.4 7.8 0 9.4z" opacity=".1"/><path d="M331.3 781.6c-20.3 2.2-30.9-2.7-30.9-2.7a13.7 13.7 0 0 1-6.3-9.5c-1.1-6.7-11.3-13.4-11.3-13.4s-12.6 1.2-14-2.5a16.6 16.6 0 0 1-.5-4.8c0-9.8 2.5-30.6 5.3-30.3 3.4.4 13.8 14.2 14.8 15.6-1-1.5-10-17 10.1-18.8 0 0 16.4-9.2 14.7 12.4l6.9 14.8s13.5 20 17 19.3c1.5-.3 5 3.7 5.8 8.2 1 5-1 10.5-11.6 11.7z" fill="#ced7e7"/><path d="M210.4 240.8v2.6l-1 .3-3.2 1.2a5 5 0 0 1-1.8.4 3.1 3.1 0 0 1-2.4-1.3 7.2 7.2 0 0 1-1-2.4l-2.4-9.5c-.5-2-1.3-4.1-3.4-4.8a13.4 13.4 0 0 1-1.9-.6c-1.3-.6-1.6-2-2-3.3-1-3-3.7-5.2-6.6-7a11.8 11.8 0 0 0-6.7-2.2 5.8 5.8 0 0 0-3.5 1.3c-2 1.8-1.8 4.2-1.5 6.7s.9 5.2.2 7.7c-.5 1.7-1.6 3.2-1.8 4.9-.2 1.4.3 2.7.2 4.1a3.3 3.3 0 0 1-2.6 3.2c-.1-.9-1.3-1.1-2.1-1.6-1.9-1-2-3.2-1.9-5l.4-8.2a125.4 125.4 0 0 1-3.7 18 6 6 0 0 1-1.4 2.8 2.9 2.9 0 0 1-3.2.6 3 3 0 0 1-1.3-1.7 20 20 0 0 1-1.3-10c-1 4.4-2.2 9-4.3 13-.9 1.7-2.2 3.5-4.3 3.9a7.3 7.3 0 0 0-1.8.3 2.2 2.2 0 0 0-.7.4 35 35 0 1 1 67-13.8z" opacity=".1"/><path d="M174.5 213.7a5.7 5.7 0 0 1 3.5-1.3 11.9 11.9 0 0 1 6.7 2.2c2.9 1.7 5.5 4 6.6 7 .4 1.2.7 2.7 2 3.3a16 16 0 0 0 1.8.6c2.1.7 2.9 2.9 3.4 4.8l2.5 9.5a6.8 6.8 0 0 0 1 2.4 3.1 3.1 0 0 0 2.3 1.3 5 5 0 0 0 1.8-.4l3.3-1.2c1.7-.6 3.6-1.4 4.4-2.8a5.4 5.4 0 0 0 .4-3 59.4 59.4 0 0 0-1.3-9.1l3.8 2.6c.9.6 2 1.2 3.1.9a2.4 2.4 0 0 0 1.5-1.6c.7-1.9.2-4.1 1.6-5.7l1-1c1.3-1.7-.2-4 .3-5.9a2.5 2.5 0 0 0 3-.8 4.9 4.9 0 0 0 .7-2.8c.3-5.7.4-11.8-3.4-16.4.7-4.6-4.2-9.6-9.6-10.3-1.4-.1-3-.2-3.6-1.2a3.5 3.5 0 0 1-.3-1.6c-.1-1.8-1.3-3.3-2.4-4.8a7.3 7.3 0 0 0-1.7-1.7c-1.8-1.2-4.3-.8-6.5-.4q-6.2 1-12.2 2.4a12.2 12.2 0 0 1 .1-6c.4-1.5 1.1-3 .4-4.5a2.4 2.4 0 0 0-2-1.3 2.7 2.7 0 0 0-2.6 1.6 31 31 0 0 0-4.7 11.4 11 11 0 0 0-10.5-1.2 8.9 8.9 0 0 1-2.8 1 4.7 4.7 0 0 1-4-2.4c-1-1.7-1.6-3.7-3.7-4.8a3.3 3.3 0 0 0-3 0c-3 1.7.6 5.7-1.5 7.9a5.5 5.5 0 0 1-2 1.1l-5.2 2a28.9 28.9 0 0 1-8.8 2.1c-3.5.2-7-.9-10.5-.2a10 10 0 0 0 5.3 3.2c1.2.3 2.5.4 3.7.8a3.5 3.5 0 0 1 2.6 2.3c.3 1.4-1 2.7-.8 4.1a2.7 2.7 0 0 0 3 1.8l-6.2 4c-1.1.7-2.4 1.8-2 3l2 .5-5.4 7.7a4.5 4.5 0 0 0-1 2.9 2 2 0 0 0 2.4 1.5 14.4 14.4 0 0 0-3 4.7 1.6 1.6 0 0 0 0 1.5 2.2 2.2 0 0 0 1.8.7c3 0 5.6-2 6-4.5 1 1 0 2.2-.9 3.2-3.4 4-6.9 8.3-8.7 13s-1.7 10.4 1.7 14.5a16.6 16.6 0 0 1 2 2.6c1 2 .4 4.7 2.1 6.5a75.6 75.6 0 0 1 5-10.8 32 32 0 0 1-.6 3.6 3 3 0 0 0 1.7 3.1c1.8.7 3.6-.7 4.7-2a3.3 3.3 0 0 1 1.1-.9 7.5 7.5 0 0 1 1.9-.3c2-.3 3.3-2.1 4.2-3.8 2.1-4.1 3.3-8.6 4.4-13a19.8 19.8 0 0 0 1.3 10 3 3 0 0 0 1.2 1.6 3 3 0 0 0 3.2-.6 5.9 5.9 0 0 0 1.4-2.7 126.5 126.5 0 0 0 3.8-18l-.4 8.1c-.1 1.9 0 4 1.8 5 .8.5 2 .8 2.2 1.6a3.2 3.2 0 0 0 2.5-3.2c.1-1.3-.3-2.7-.2-4 .2-1.8 1.3-3.3 1.8-5 .7-2.5.1-5.1-.2-7.7s-.4-5 1.7-6.7z" fill="#896363"/><path d="M331.3 781.6c-20.3 2.2-30.9-2.7-30.9-2.7a13.7 13.7 0 0 1-6.3-9.5c-1.1-6.7-11.3-13.4-11.3-13.4s-12.6 1.2-14-2.5a16.6 16.6 0 0 1-.5-4.8c4.6 1.2 15.3 3.7 18.6 4.7 4.3 1.2 16.9 21.6 16.9 21.6 12 6.3 32-1.8 39.1-5 1 4.8-1 10.4-11.6 11.6zM241.4 746s-6.2 9.6 23.4 4.7M288.4 734s31.2 6.8 24.8-6.4" opacity=".1"/><g opacity=".1"><path d="M138.4 194.1a2.8 2.8 0 0 0-.2 1.4 2.1 2.1 0 0 0 1 1.3l2.1-1.3a2.8 2.8 0 0 1-2.9-1.4zM132.7 188.3c1.2.3 2.6.4 3.8.8a4 4 0 0 1 2.4 1.8 2.7 2.7 0 0 0 .1-1.4 3.5 3.5 0 0 0-2.5-2.3c-1.2-.4-2.6-.5-3.8-.8a10.6 10.6 0 0 1-3.4-1.5 11 11 0 0 0-1.8.2 10 10 0 0 0 5.2 3.2zM137 246.5a75.6 75.6 0 0 0-4.8 10.7c-1.7-1.7-1.1-4.4-2.2-6.4a16 16 0 0 0-2-2.6 12.6 12.6 0 0 1-2.8-7.4 13 13 0 0 0 2.8 9.2 16 16 0 0 1 2 2.6c1.1 2 .5 4.7 2.2 6.5a76.2 76.2 0 0 1 4.5-10.1 10.7 10.7 0 0 0 .4-2.5zM128.8 214.1a2.5 2.5 0 0 0-.2 1.3 2 2 0 0 0 1 1.4 14.1 14.1 0 0 1 1.5-1.7 2 2 0 0 1-2.3-1zM188 174.7a11.4 11.4 0 0 1 .4-2.3c.3-1.3.9-2.6.5-3.9l-.5 2a12 12 0 0 0-.4 4.2zM154.3 173.6a10 10 0 0 0 .3 3.5 10 10 0 0 0-.3-3.5zM136 217.5c-.5 2.4-3.2 4.4-6 4.4a2.5 2.5 0 0 1-1.8-.5l-.1.2a1.7 1.7 0 0 0 0 1.5 2.2 2.2 0 0 0 1.8.7 6.8 6.8 0 0 0 3.4-1l1.8-2.1a10.3 10.3 0 0 0 .8-1.2 1.6 1.6 0 0 0 0-.2 1.5 1.5 0 0 0 0-1.8zM133.6 202.5a1.7 1.7 0 0 0-.5 1.7l1 .3 1-1.5zM224 220c-.3.5-.7.8-1 1-1.5 1.6-1 3.9-1.7 5.8a2.4 2.4 0 0 1-1.4 1.5c-1.1.4-2.3-.3-3.2-.9L213 225l.4 2 3.3 2.4c1 .6 2 1.2 3.2.9a2.5 2.5 0 0 0 1.4-1.6c.7-1.9.2-4.1 1.6-5.7l1.1-1a3.4 3.4 0 0 0 .4-2.8 2.3 2.3 0 0 1-.4 1zM214.2 235.6a3.6 3.6 0 0 1-.4 1.3c-.8 1.5-2.6 2.2-4.4 2.9l-3.2 1.2a5.1 5.1 0 0 1-1.8.4 3.1 3.1 0 0 1-2.4-1.3 7 7 0 0 1-1-2.4l-2.5-9.6c-.5-1.9-1.3-4-3.4-4.8a16 16 0 0 1-1.8-.5c-1.4-.6-1.6-2.1-2-3.4-1-2.9-3.7-5.2-6.6-7a12 12 0 0 0-6.6-2.1 5.7 5.7 0 0 0-3.6 1.3c-1.6 1.4-1.8 3.2-1.6 5.1a4.7 4.7 0 0 1 1.6-3.3 5.8 5.8 0 0 1 3.6-1.3 12 12 0 0 1 6.6 2.2c2.9 1.7 5.5 4 6.6 7 .4 1.2.7 2.7 2 3.3a16 16 0 0 0 1.8.6c2.1.7 2.9 2.9 3.4 4.8l2.5 9.5a6.9 6.9 0 0 0 1 2.4 3 3 0 0 0 2.4 1.3 5.4 5.4 0 0 0 1.8-.4l3.2-1.2c1.7-.6 3.6-1.4 4.4-2.8a5.4 5.4 0 0 0 .4-3v-.2zM228 210.6a4.9 4.9 0 0 1-.8 2.8 2.5 2.5 0 0 1-2.9.8 4.7 4.7 0 0 0 0 2v-.1a2.5 2.5 0 0 0 3-.8 5 5 0 0 0 .7-2.8 62.7 62.7 0 0 0 0-1.9zM154.5 233a59 59 0 0 1-4.3 13.2c-.9 1.6-2.2 3.4-4.3 3.7a7.7 7.7 0 0 0-1.9.4 3.3 3.3 0 0 0-1 .9c-1.2 1.3-3 2.6-4.8 2a2.6 2.6 0 0 1-1.6-2v.7a3 3 0 0 0 1.6 3.1c1.8.7 3.6-.7 4.8-2a3.4 3.4 0 0 1 1-.9 6.8 6.8 0 0 1 2-.3c2-.3 3.3-2.1 4.2-3.8a56.5 56.5 0 0 0 4.2-12.4 19.2 19.2 0 0 1 .1-2.5zM165.4 223.4a126.5 126.5 0 0 1-3.7 18 5.8 5.8 0 0 1-1.4 2.8 3 3 0 0 1-3.2.6 3 3 0 0 1-1.3-1.7 20 20 0 0 1-1.4-6.5 19.8 19.8 0 0 0 1.4 8.4 3 3 0 0 0 1.3 1.7 3 3 0 0 0 3.2-.7 5.8 5.8 0 0 0 1.4-2.7 126 126 0 0 0 3.6-17.1zM173.2 226c-.5 1.7-1.6 3.2-1.8 4.9a7 7 0 0 0 0 1.7c.2-1.7 1.3-3.1 1.7-4.7a10 10 0 0 0 .3-3.6 8.6 8.6 0 0 1-.3 1.7zM169 238.2c-.1-.8-1.3-1.1-2.2-1.6a4 4 0 0 1-1.8-3.4v.2c0 1.9 0 4 1.9 5 .8.5 2 .8 2.1 1.6a3.3 3.3 0 0 0 2.6-3.2 8.4 8.4 0 0 0 0-1.4 3.1 3.1 0 0 1-2.6 2.8z"/></g><path d="M480.7 799.2H364.2a9.7 9.7 0 0 1-9.7-10.9l28.4-241 .6-5a9.7 9.7 0 0 1 9.7-8.6h61.1a9.7 9.7 0 0 1 9.7 8.7l.5 4.8 26 241.2a9.7 9.7 0 0 1-9.8 10.8z" fill="#4e5a86"/><path d="M391 562.5s4.2 109.3-12.3 151c0 0 1.7 8.9 6.4 0S405.6 612 398 564c0 0-1.6-5.2-7-1.5zM411.5 562.5s4.2 109.3-12.3 151c0 0 1.7 8.9 6.4 0S426.2 612 418.5 564c0 0-1.5-5.2-7-1.5zM461.4 562.5s-4.3 109.3 12.3 151c0 0-1.8 8.9-6.4 0S446.7 612 454.3 564c0 0 1.6-5.2 7.1-1.5zM440.9 562.5s-4.3 109.3 12.2 151c0 0-1.7 8.9-6.4 0S426.2 612 433.8 564c0 0 1.6-5.2 7-1.5z" opacity=".1"/><path fill="#4e5a86" d="M395.6 19.4H451v483h-55.4z"/><path fill="none" stroke="#c1272d" stroke-miterlimit="10" d="M357 385.8z"/><path d="M464.5 547.2a7.5 7.5 0 0 1-1.9.3H384a7.2 7.2 0 0 1-1.1-.1l.6-5.1a9.7 9.7 0 0 1 9.7-8.6h61.1a9.7 9.7 0 0 1 9.7 8.7zM395.6 492.8h55.9v9.7h-55.9z" opacity=".1"/><rect x="376.7" y="494.6" width="93.3" height="51" rx="8" ry="8" fill="#4e5a86"/><path opacity=".1" d="M399.4 19.4h8v460.1h-8zM412.7 19.4h8v460.1h-8zM426 19.4h8v460.1h-8zM439.3 19.4h8v460.1h-8z"/><path d="M454.5 250s-18.3-5.6-15.5 14.4 9.8 21.3 9.8 21.3 6.1-1.3 6.9-9.3-1.2-26.3-1.2-26.3z" fill="#ffa2a2"/><g opacity=".1"><path d="M869.9 677.4C885.2 700 880.3 781 880.3 781s-77-25.5-92.4-48.1a49.5 49.5 0 0 1 82-55.5z" fill="#4285f4"/><path d="M869.9 677.4C885.2 700 880.3 781 880.3 781s-77-25.5-92.4-48.1a49.5 49.5 0 0 1 82-55.5z" opacity=".1"/><path d="M801.5 664.2s57.7 44.6 79.1 116.9" fill="none" stroke="#535461" stroke-miterlimit="10"/><path d="M895.2 719.7s-41-7-13 60.9c0 0 28.4-10.9 30.7-37.9a21.6 21.6 0 0 0-17.2-23z" fill="#4285f4"/><path d="M895.8 719.6s7.8 37.6-13.6 61" fill="none" stroke="#535461" stroke-miterlimit="10"/></g><g opacity=".1"><path d="M446.5 609.6s61.5-157 179.3-216.4c49.4-24.9 90-64.4 114.6-114a430 430 0 0 0 28.2-73.3" fill="none" stroke="#535461" stroke-miterlimit="10" stroke-width="2"/><path d="M842.6 168c-12.2 15.7-75.8 39-75.8 39s7-67.4 19-83a35.9 35.9 0 1 1 56.8 44zM822.1 291.2c-18.7 6.5-84.8-8.4-84.8-8.4s42.4-52.9 61.2-59.4a35.9 35.9 0 1 1 23.6 67.8zM705 437.8c-19.5-3.8-69-50-69-50s63.3-24.3 82.8-20.5a35.9 35.9 0 0 1-13.8 70.5zM591.3 528.8c-19.8-.4-76.4-37.7-76.4-37.7s58.3-34.5 78.1-34a35.9 35.9 0 0 1-1.7 71.7zM675.4 239.6c2.8 19.6 46.3 71.6 46.3 71.6s27.6-62 24.8-81.6a36 36 0 0 0-71 10zM543.8 347.7c8.6 18 65.6 54.4 65.6 54.4s7.8-67.3-.8-85.2a35.9 35.9 0 1 0-64.8 30.8zM430.4 470.3c5.4 19.1 55.5 64.8 55.5 64.8s19-65.1 13.7-84.2a36 36 0 0 0-69.2 19.4z" fill="#4285f4"/></g><g opacity=".1"><path d="M436.3 326.8s22.2-56.7 64.7-78.1a92.4 92.4 0 0 0 41.5-41.2 155.3 155.3 0 0 0 10.2-26.5" fill="none" stroke="#535461" stroke-miterlimit="10" stroke-width="2"/><path d="M579.4 167.3C575 173 552 181.4 552 181.4s2.5-24.3 7-30a13 13 0 1 1 20.4 16zM572 211.8c-6.8 2.4-30.7-3-30.7-3s15.4-19.1 22.1-21.5a13 13 0 1 1 8.6 24.5zM529.7 264.8c-7-1.4-25-18.1-25-18.1s23-8.7 30-7.4a13 13 0 1 1-5 25.5zM488.6 297.7c-7.2-.2-27.6-13.6-27.6-13.6s21-12.5 28.2-12.4a13 13 0 0 1-.6 26zM519 193.2c1 7 16.7 25.8 16.7 25.8s10-22.4 9-29.4a13 13 0 1 0-25.7 3.6zM471.4 232.2c3 6.5 23.7 19.7 23.7 19.7s2.8-24.3-.3-30.8a13 13 0 0 0-23.4 11.1zM430.5 276.5c2 7 20 23.4 20 23.4s7-23.5 5-30.4a13 13 0 1 0-25 7z" fill="#4285f4"/></g><g opacity=".1"><path d="M623.7 797.4s.9-61 33.2-96a92.3 92.3 0 0 0 24.4-53 155.4 155.4 0 0 0 .2-28.4" fill="none" stroke="#535461" stroke-miterlimit="10" stroke-width="2"/><path d="M701.8 597.8c-2.2 6.8-20.7 22.8-20.7 22.8s-6.2-23.7-4.1-30.5a13 13 0 0 1 24.7 7.7zM710.4 642c-5.5 4.6-29.8 8-29.8 8s7.7-23.3 13.2-27.9a13 13 0 0 1 16.6 20zM689.4 706.5c-7 1.2-29.7-8.2-29.7-8.2s18.4-16.2 25.4-17.4a13 13 0 0 1 4.3 25.6zM662.4 751.7c-6.8 2.4-30.6-3-30.6-3s15.4-19 22.1-21.5a13 13 0 1 1 8.5 24.5zM654.2 643.2c3.5 6.3 24.8 18.3 24.8 18.3s1.5-24.4-2-30.7a13 13 0 0 0-22.8 12.4zM623.4 696.4c5.2 5 29.1 10.1 29.1 10.1s-5.9-23.7-11-28.7a13 13 0 0 0-18 18.6zM600.6 752.3c4.2 5.8 27 14.9 27 14.9s-1.8-24.4-6-30.2a13 13 0 0 0-21 15.3z" fill="#4285f4"/></g><g opacity=".1"><path d="M473.7 787.8s1-61 33.3-96a92.3 92.3 0 0 0 24.3-53 155.3 155.3 0 0 0 .3-28.4" fill="none" stroke="#535461" stroke-miterlimit="10" stroke-width="2"/><path d="M551.8 588.2c-2.1 6.8-20.7 22.8-20.7 22.8s-6.2-23.7-4-30.5a13 13 0 1 1 24.7 7.7zM560.5 632.5c-5.5 4.6-29.8 7.9-29.8 7.9s7.7-23.3 13.2-27.9a13 13 0 0 1 16.6 20zM539.4 697c-7 1.1-29.7-8.3-29.7-8.3s18.4-16.2 25.4-17.4a13 13 0 1 1 4.3 25.6zM512.5 742.1c-6.8 2.4-30.6-3-30.6-3s15.3-19.1 22-21.5a13 13 0 1 1 8.6 24.5zM504.3 633.6C507.7 640 529 652 529 652s1.5-24.5-2-30.8a13 13 0 1 0-22.7 12.4zM473.5 686.9c5.1 5 29 10 29 10s-5.8-23.7-11-28.7a13 13 0 1 0-18 18.6zM450.6 742.7c4.3 5.8 27 14.9 27 14.9s-1.8-24.4-6-30.2a13 13 0 1 0-20.9 15.3z" fill="#4285f4"/></g><path d="M405.4 77.5c2 6.1-3.4 27.6-3.4 27.6S385 90.8 383 84.6a11.7 11.7 0 1 1 22.3-7.1zM322.4 214.6c2 6.2-3.4 27.6-3.4 27.6S302 228 300 221.8a11.7 11.7 0 0 1 22.3-7.2zM497.3 154.2c2 6.1-3.5 27.6-3.5 27.6S477 167.5 475 161.3a11.7 11.7 0 1 1 22.3-7.1zM587.7 257.8c2 6.1-3.4 27.6-3.4 27.6S567.4 271 565.4 265a11.7 11.7 0 1 1 22.3-7.2zM526.7 87.6c-3.3 5.6-23 15.8-23 15.8s-.5-22.1 2.8-27.7a11.7 11.7 0 0 1 20.2 12zM748 71c-3.4 5.5-23 15.7-23 15.7s-.5-22.1 2.8-27.7a11.7 11.7 0 1 1 20.1 12zM302.4 113.8c-6.3 1.7-27.4-5-27.4-5s15.3-16 21.5-17.6a11.7 11.7 0 1 1 6 22.6zM505.1 367c-3.3 5.5-22.9 15.7-22.9 15.7s-.5-22.1 2.8-27.7a11.7 11.7 0 1 1 20.1 12z" fill="#4285f4"/></svg>